<?xml version="1.0" encoding="utf-8"?>
<!-- Generator: Adobe Illustrator 23.0.1, SVG Export Plug-In . SVG Version: 6.00 Build 0)  -->
<svg version="1.1" id="Layer_1" xmlns="http://www.w3.org/2000/svg" xmlns:xlink="http://www.w3.org/1999/xlink" x="0px" y="0px"
	 viewBox="0 0 1000 1000" style="enable-background:new 0 0 1000 1000;" xml:space="preserve">
<style type="text/css">
	.st0{fill:url(#SVGID_1_);}
	.st1{fill:url(#SVGID_2_);}
	.st2{opacity:0.26;clip-path:url(#SVGID_4_);}
	.st3{fill:#A3A3A3;}
	.st4{opacity:0.67;clip-path:url(#SVGID_4_);}
	.st5{fill:#999999;}
	.st6{opacity:0.2;clip-path:url(#SVGID_6_);}
	.st7{fill:none;}
	.st8{clip-path:url(#SVGID_8_);}
	.st9{clip-path:url(#SVGID_10_);fill:none;}
	.st10{clip-path:url(#SVGID_12_);}
	.st11{fill:url(#XMLID_4_);}
	.st12{clip-path:url(#SVGID_14_);}
	.st13{fill:url(#XMLID_5_);}
	.st14{clip-path:url(#SVGID_16_);}
	.st15{fill:url(#XMLID_6_);}
	.st16{clip-path:url(#SVGID_18_);}
	.st17{fill:url(#XMLID_7_);}
	.st18{clip-path:url(#SVGID_20_);}
	.st19{fill:url(#XMLID_8_);}
	.st20{clip-path:url(#SVGID_22_);}
	.st21{fill:url(#XMLID_9_);}
	.st22{clip-path:url(#SVGID_24_);}
	.st23{fill:url(#XMLID_10_);}
	.st24{clip-path:url(#SVGID_26_);}
	.st25{fill:url(#XMLID_11_);}
</style>
<g id="background">
	
		<linearGradient id="SVGID_1_" gradientUnits="userSpaceOnUse" x1="0" y1="500" x2="1000" y2="500" gradientTransform="matrix(1 0 0 -1 0 1000)">
		<stop  offset="0" style="stop-color:#FFFFFF"/>
		<stop  offset="1" style="stop-color:#FFFFFF"/>
	</linearGradient>
	<rect class="st0" width="1000" height="1000"/>
</g>
<g id="object">
	<g>
		<linearGradient id="SVGID_2_" gradientUnits="userSpaceOnUse" x1="501.3435" y1="974.8855" x2="498.582" y2="-1.1978">
			<stop  offset="0" style="stop-color:#FFFFFF;stop-opacity:0"/>
			<stop  offset="1" style="stop-color:#626262;stop-opacity:0.7"/>
		</linearGradient>
		<rect class="st1" width="1000" height="1000"/>
		<g>
			<defs>
				<rect id="SVGID_3_" width="1000" height="1000"/>
			</defs>
			<clipPath id="SVGID_4_">
				<use xlink:href="#SVGID_3_"  style="overflow:visible;"/>
			</clipPath>
			<g id="XMLID_1_" class="st2">
				<path id="XMLID_2_" class="st3" d="M830,452.4C997.7,143,1384.7,28.1,1694.2,195.9s424.4,554.7,256.5,864.2
					s-554.7,424.3-864.2,256.5C777,1148.9,662.1,761.9,830,452.4z"/>
			</g>
			<g id="XMLID_357_" class="st4">
				<path id="XMLID_358_" class="st5" d="M426.7,1028C593.4,720.4,978,606.2,1285.6,773s421.8,551.4,255,858.9
					s-551.4,421.7-858.9,255C374,1720.2,259.9,1335.6,426.7,1028z"/>
			</g>
		</g>
		<g>
			<defs>
				<rect id="SVGID_5_" width="1000" height="1000"/>
			</defs>
			<clipPath id="SVGID_6_">
				<use xlink:href="#SVGID_5_"  style="overflow:visible;"/>
			</clipPath>
			<g class="st6">
				<path class="st7" d="M159.5,51.3l149,175l176.1-59c-0.4-1.6-0.5-3.4-0.1-5.1l-323-113.9C161.1,49.4,160.3,50.5,159.5,51.3z"/>
				<path class="st7" d="M340.2,278.4L187,273.1c-0.1,0.7-0.3,1.4-0.5,2.1c-0.9,2.8-2.9,4.9-5.4,6.2l26.3,56.2l133.3-56.5
					C340.5,280.2,340.3,279.3,340.2,278.4z"/>
				<path class="st7" d="M38.6,399.4c1.2,0,2.5,0.1,3.7,0.6c1.3,0.4,2.4,1.1,3.4,1.9l121.9-123.6c-0.5-0.7-1-1.5-1.3-2.3L29.6,319.4
					L38.6,399.4z"/>
				<path class="st7" d="M45,419.1c-1.9,1.3-4.1,2-6.4,2L28,519.3L11.7,671.1c0.2,0,0.3,0.1,0.5,0.1c2.2,0.7,4,2.1,5.2,3.8
					l153-108.2L45,419.1z"/>
				<path class="st7" d="M168.4,264.1c1.5-1.6,3.5-2.7,5.7-3.1L151.9,54.6c-1.2,0-2.4-0.2-3.7-0.6c-0.4-0.1-0.7-0.3-1-0.4L70.8,186
					L168.4,264.1z"/>
				<path class="st7" d="M485.3,169.2L310,228l34.9,41c2.7-1.9,6.3-2.6,9.7-1.4c1.7,0.6,3.2,1.6,4.4,2.8l48.9-38.4l78.2-61.3
					C485.8,170.1,485.5,169.7,485.3,169.2z"/>
				<path class="st7" d="M153.9,54.4L176,260.8c1.2,0,2.4,0.2,3.7,0.6c3,1,5.3,3.2,6.4,5.9L306.5,227L158,52.6
					C156.7,53.5,155.3,54.1,153.9,54.4z"/>
				<path class="st7" d="M165.9,268.2c0.3-0.9,0.7-1.7,1.2-2.5l-97.3-78L30,256.6c2.9,2,4.6,5.3,4.6,8.8l131,3.6
					C165.7,268.7,165.8,268.5,165.9,268.2z"/>
				<path class="st7" d="M252,675.3l-232.4,7.2h-0.1c-0.1,0.8-0.2,1.7-0.5,2.5c-0.7,2.1-2,3.9-3.7,5.1L61.6,774l191.1-96.1
					C252.3,677.1,252.1,676.2,252,675.3z"/>
				<path class="st7" d="M-10.2,117.7c-0.3,0.9-0.7,1.7-1.2,2.5l80.6,64.6l76.2-132.1c-1.4-1-2.6-2.3-3.4-3.8L-10.1,111
					C-9.4,113.1-9.4,115.4-10.2,117.7z"/>
				<path class="st7" d="M179.3,282.1c-2.1,0.6-4.4,0.6-6.6-0.1c-1.3-0.4-2.4-1.1-3.4-1.9L47.1,403.3c0.5,0.6,0.9,1.2,1.2,1.8
					l157.3-66.7L179.3,282.1z"/>
				<path class="st7" d="M186.8,269.2c0.1,0.6,0.2,1.2,0.3,1.8l96.5,3.4l56.7,2c0.1-0.7,0.3-1.4,0.5-2.1c0.5-1.6,1.4-3,2.5-4.1
					l-35.4-41.6L186.8,269.2z"/>
				<path class="st7" d="M-23.5,819.1c0.1,1.4-0.1,2.9-0.5,4.3c-0.3,0.9-0.7,1.7-1.2,2.4l121.6,28.6l0,0c0.8-2.3,2.2-4.1,4.1-5.4
					l-39.8-72.2L-23.5,819.1z"/>
				<path class="st7" d="M255.8-29c-1.8-0.6-3.3-1.6-4.5-2.9l-89.1,68.8l112.9-61.2l-8.3-7.1C264-28.7,259.8-27.6,255.8-29z"/>
				<path class="st7" d="M37.9-39.1L151-39.7l0.4-96.8c-0.8-0.1-1.6-0.2-2.5-0.5c-1.6-0.5-2.9-1.4-4-2.4L35.8-44.7
					C37-43.1,37.7-41.2,37.9-39.1z"/>
				<path class="st7" d="M161.7,39.5c0.9,2.1,1.2,4.5,0.5,6.9l322.4,113.7l0.7-0.3c0.3-0.6,0.6-1.1,0.9-1.6L276.7-22.9L161.7,39.5z"
					/>
				<path class="st7" d="M267.9,489.1L48.7,414.7c-0.5,1.2-1.3,2.3-2.2,3.2L172,565.7l97-68.6C267.7,494.7,267.2,491.9,267.9,489.1z
					"/>
				<path class="st7" d="M-120.6-101.4l96.4,205.3c2.2-0.8,4.8-0.9,7.2-0.1c2.8,0.9,4.9,2.9,6.1,5.3l152.1-62.2
					c-0.6-2.1-0.7-4.4,0.1-6.7c0.1-0.3,0.2-0.6,0.4-0.9l-259-144.1C-118.1-103.4-119.2-102.2-120.6-101.4z"/>
				<path class="st7" d="M127.6,29.2L35.2-31.3c-2.4,2.7-6,4.1-9.7,3.6L127.6,29.2z"/>
				<path class="st7" d="M-23.8,817l83.6-42l-46.2-83.7c-1.9,1-4.1,1.4-6.3,1.1l-37.6,117.5C-27,811.1-24.7,813.8-23.8,817z"/>
				<path class="st7" d="M165.6,274c-0.2-1-0.3-2-0.2-3l-130.9-3.6c-0.1,0.5-0.2,1.1-0.4,1.6c-1.4,4.2-5.1,6.9-9.3,7.3l4.6,41
					L165.6,274z"/>
				<path class="st7" d="M27.3,255.2c0.4,0.1,0.7,0.3,1,0.4l39.9-69.2l-80.9-64.8c-1.1,1.1-2.4,2-3.8,2.6l38.2,130.6
					C23.5,254.5,25.4,254.6,27.3,255.2z"/>
				<path class="st7" d="M103.3,868.1c-0.9-0.3-1.7-0.7-2.4-1.2L53.5,930l107.9,129.5c0.7-0.5,1.4-0.9,2.2-1.2l-55-189.9
					C106.9,868.8,105,868.7,103.3,868.1z"/>
				<path class="st7" d="M253.5,679.7l-191,96.1l39.8,72.1c2.4-1.1,5.3-1.3,8-0.4c0.9,0.3,1.8,0.8,2.6,1.3L255,681.6
					C254.4,681,254,680.4,253.5,679.7z"/>
				<path class="st7" d="M18.4,676.8c0.6,1.2,0.9,2.4,1.1,3.8l232.4-7.2c0.1-0.9,0.2-1.9,0.5-2.8c0.5-1.6,1.4-3,2.5-4.1l-83.3-98
					L18.4,676.8z"/>
				<path class="st7" d="M96,856.3L77.5,852l-104-24.5c-1,1-2.2,1.8-3.5,2.4l82.2,98.6l47.1-62.7C96.8,863.3,95.5,859.8,96,856.3z"
					/>
				<path class="st7" d="M-270.8-280.3c-0.5-0.1-1-0.2-1.4-0.4c-0.2-0.1-0.5-0.2-0.7-0.3L-383.3-74.2l75.2,122
					c1.4-0.7,3-1.2,4.7-1.2L-270.8-280.3z"/>
				<path class="st7" d="M-313.4,54c0.7-2.1,2-3.8,3.6-5.1l-74.6-121.1l-62.4,116.9c3.1,2,4.9,5.3,5,8.9l127.9,2.3
					C-313.8,55.3-313.6,54.7-313.4,54z"/>
				<path class="st7" d="M-274.7-281.9c-3.1-2.1-5-5.6-4.9-9.3l-246.9-28.6c-0.1,0.4-0.2,0.8-0.3,1.3c-0.7,2.2-2.1,3.9-3.8,5.2
					l146.2,237.2L-274.7-281.9z"/>
				<path class="st7" d="M341.5,282.9l-133.2,56.5l66.5,142c1.9-0.7,4.1-0.9,6.2-0.3l65.6-193.3C344.4,286.7,342.6,285,341.5,282.9z
					"/>
				<path class="st7" d="M-89.9,1726.3c0.7,0.7,1.3,1.4,1.8,2.2l185.6-95.3c-0.9-2.3-1.1-5-0.2-7.5c1-2.9,3.1-5.1,5.6-6.3L66.4,1519
					L-89.9,1726.3z"/>
				<path class="st7" d="M13.5,262c0.2-0.5,0.4-1,0.6-1.5l-102-64.9l-145.6,172.5c0.7,0.8,1.4,1.6,1.9,2.5l245-101.8
					C12.7,266.6,12.7,264.3,13.5,262z"/>
				<path class="st7" d="M171.1,1058.2L171.1,1058.2c5.2,1.8,8.2,7,7.2,12.3l172.9,48.5c0.5-1.2,1.1-2.3,1.9-3.2L196.3,952.5
					L171.1,1058.2z"/>
				<path class="st7" d="M-99.4,1723.7c1.8-0.4,3.7-0.3,5.6,0.4c0.3,0.1,0.7,0.2,1,0.4l137.4-242.2c-1.9-1.3-3.3-3.2-4-5.3
					l-198.6,49.5L-99.4,1723.7z"/>
				<path class="st7" d="M-333.4,1579.3c-1,0.2-2.1,0.2-3.1,0l-14.2,110.9l-11.6,90.7c0.7,0.1,1.4,0.3,2.1,0.5
					c3.6,1.2,6.1,4.1,7,7.5l98.7-21.4L-333.4,1579.3z"/>
				<path class="st7" d="M-27.8,106.2c0.6-0.5,1.2-1,1.9-1.4l-96.4-205.3c-2.3,0.9-5,1.1-7.5,0.2c-1.4-0.5-2.7-1.2-3.7-2.2l-61,57.8
					L-27.8,106.2z"/>
				<path class="st7" d="M-45.6,1042.1L-156,947.8l-71.2,74.1c1.7,2,2.7,4.5,2.6,7.2l177.2,17.3c0.1-0.5,0.2-1,0.4-1.4
					C-46.6,1043.8-46.2,1042.9-45.6,1042.1z"/>
				<path class="st7" d="M-5.4,685.4l-160.9,32.9c0.2,1.5,0,3.1-0.5,4.7c-0.2,0.7-0.5,1.3-0.9,1.9l16.9,11.9L-5.4,685.4z"/>
				<path class="st7" d="M155.2,33.4c1.8,0.6,3.3,1.6,4.5,2.9l90.5-69.8c-0.9-1.4-1.5-3.1-1.6-4.8L153-37.7l-0.3,70.6
					C153.6,33,154.4,33.2,155.2,33.4z"/>
				<path class="st7" d="M49.1,406.9c0.6,1.8,0.7,3.8,0.2,5.8l219.2,74.4c0.9-2.1,2.5-3.8,4.4-4.9l-66.5-142.1L49.1,406.9z"/>
				<path class="st7" d="M249-42.8c0.4-1.3,1.1-2.5,2-3.5L159.4-139c-1.7,1.4-3.7,2.2-5.9,2.4L153-39.7l95.4-0.5
					C248.6-41.1,248.7-41.9,249-42.8z"/>
				<path class="st7" d="M-29.4,1040.3c2.3,2.1,3.6,5,3.6,8.1l144.7,14.3l38,3.8c0.1-0.5,0.2-1,0.4-1.4c0.6-1.6,1.5-3,2.6-4.2
					L52.2,931.7L-29.4,1040.3z"/>
				<path class="st7" d="M150.8,32.9l0.3-70.6L37.8-37.1c-0.1,0.7-0.3,1.5-0.5,2.2s-0.6,1.4-0.9,2L143.2,37
					C145.1,34.6,147.8,33.2,150.8,32.9z"/>
				<path class="st7" d="M-32.1,830.5c-1,0.2-1.9,0.3-2.9,0.2l-0.6,206.8c0.8,0.1,1.6,0.2,2.5,0.5c0.8,0.3,1.5,0.6,2.2,1L51,930
					L-32.1,830.5z"/>
				<path class="st7" d="M-159.5,1172.5c0.3,1.7,0.1,3.5-0.4,5.2c-0.3,0.9-0.7,1.7-1.2,2.4l178.5,123.6c1.3-1.5,3-2.7,4.8-3.3
					l-40.9-172.3L-159.5,1172.5z"/>
				<path class="st7" d="M-172.8,1442.6c0.9,1.6,1.4,3.5,1.4,5.4l211.5,23.2c0.1-0.4,0.2-0.9,0.3-1.3c0.6-1.8,1.7-3.4,3-4.6
					l-82.2-110.9L-172.8,1442.6z"/>
				<path class="st7" d="M15.4,1307.3c0.2-0.7,0.5-1.3,0.8-1.8l-178.6-123.7c-0.3,0.3-0.7,0.7-1.1,1l125.3,168.9l54.3-35.7
					C14.8,1313.3,14.4,1310.3,15.4,1307.3z"/>
				<path class="st7" d="M47.3,1483.7c-0.3-0.1-0.7-0.2-1-0.4l-135.1,238.2l154.3-204.7l-12-32.9
					C51.6,1484.4,49.4,1484.4,47.3,1483.7z"/>
				<path class="st7" d="M29.4,404.7c1.6-2.7,4.2-4.5,7.2-5.1L27.7,320l-98.3,31.3c0.5,1.9,0.6,3.9,0,5.9L29.4,404.7z"/>
				<path class="st7" d="M156.7,1068.4l-182.7-18c-0.1,0.5-0.2,1-0.4,1.4c-1.1,3.3-3.7,5.7-6.8,6.8l15.9,67l174.2-54.8
					C156.8,1070,156.7,1069.2,156.7,1068.4z"/>
				<path class="st7" d="M-231.9,1018.6c1.2,0.4,2.3,1,3.3,1.8l71.2-74L-319.5,808c-0.8,0.8-1.7,1.4-2.6,1.9l83.6,208.6
					C-236.4,1017.9-234.1,1017.9-231.9,1018.6z"/>
				<path class="st7" d="M-248.2-97.6c-0.4,1.1-0.9,2.1-1.6,3L-196-46l61.1-57.9c-1.2-1.5-1.9-3.3-2.2-5.2l-110.5,8.2
					C-247.7-99.8-247.9-98.7-248.2-97.6z"/>
				<path class="st7" d="M-237.8,365.5c1,0.3,1.9,0.8,2.7,1.4l145.5-172.3L-294.5,64.1c-1.5,1.9-3.6,3.3-5.9,3.9l58,296.9
					C-240.9,364.8-239.3,364.9-237.8,365.5z"/>
				<path class="st7" d="M-449.1,43.7c0.2,0.1,0.4,0.1,0.6,0.2l63-118l-146.8-238.2c-0.5,0.2-1,0.4-1.5,0.6l79.3,355
					C-452.8,42.9-450.9,43-449.1,43.7z"/>
				<path class="st7" d="M-91.4,350.8c1.9-5.7,8.1-8.7,13.8-6.8c1.4,0.5,2.7,1.3,3.8,2.2l88.5-74.8c-0.2-0.3-0.4-0.6-0.5-0.9
					l-245.1,101.9c0.1,0.3,0.2,0.5,0.2,0.8L-92,354.8C-92,353.5-91.9,352.2-91.4,350.8z"/>
				<path class="st7" d="M-166.6,716.4l164.5-33.6c-0.2-1.5,0-3.1,0.5-4.7c1.2-3.5,3.9-5.9,7.2-6.9L-78.6,365
					c-1.6,0.4-3.3,0.4-4.9,0l-89.7,344.4C-170,710.5-167.6,713.2-166.6,716.4z"/>
				<path class="st7" d="M275,501.9c-1.9-0.7-3.5-1.8-4.8-3.2l-96.8,68.5l83.1,97.9c1.8-1.3,3.9-2,6.2-2l13.9-160.8
					C276,502.2,275.5,502.1,275,501.9z"/>
				<path class="st7" d="M-292.3,58.4L-30.9,111c0-0.1,0.1-0.3,0.1-0.4c0.4-1.1,0.9-2.1,1.6-3L-196-43.2l-98.8,93.6
					C-293,52.6-292,55.5-292.3,58.4z"/>
				<path class="st7" d="M16.6-41.7L-97.8-96.3L18.6-31.5C16.4-34.2,15.5-38,16.6-41.7z"/>
				<path class="st7" d="M348.1,289.9L283,481.7c0.2,0.1,0.5,0.2,0.7,0.4l103.5-156.2L348.1,289.9z"/>
				<path class="st7" d="M488.3,173.1c-0.4-0.3-0.7-0.6-1-0.9l-127.1,99.7c1.7,2.7,2.3,6.1,1.2,9.4c-1.7,5-6.7,8-11.8,7.3l38.7,35.6
					L488.3,173.1z"/>
				<path class="st7" d="M445.1-106.8c-2.4-0.8-4.3-2.3-5.5-4.3l-161,87.2l209,180.7c1.3-1.3,3-2.2,4.8-2.7l-43.1-260.4
					C447.9-106.2,446.5-106.3,445.1-106.8z"/>
				<path class="st7" d="M269.6-35.8c-0.4,1-0.8,2-1.5,2.8l8.8,7.6L431.5-109L269.7-42.5C270.3-40.3,270.4-38,269.6-35.8z"/>
				<path class="st7" d="M-153,737.6l-15.7-11.1c-2.8,3.3-7.4,4.7-11.8,3.3c-2.4-0.8-4.3-2.4-5.6-4.3L-315.2,795L-153,737.6z"/>
				<path class="st7" d="M285.3,483.2c1.2,0.9,2.1,2.1,2.8,3.4l188.5-78.5l-87.9-80.9L285.3,483.2z"/>
				<path class="st7" d="M196.8,950.2l157.7,164.2c1-0.8,2.1-1.4,3.3-1.8l-98.6-423.9L196.8,950.2z"/>
				<path class="st7" d="M491.7,174.9c-0.6-0.2-1.1-0.4-1.6-0.7L389.8,325.5l87.8,80.7l15.9-230.9
					C492.8,175.2,492.2,175.1,491.7,174.9z"/>
				<path class="st7" d="M646,102.6l-144.3,53.3c3.6,2.8,5.3,7.6,3.7,12.2c-1.5,4.4-5.6,7.3-10,7.4l-15.7,228.6l169.9-297.3
					C648,105.7,646.8,104.3,646,102.6z"/>
				<path class="st7" d="M350.6,1120.9l-172.9-48.5c-2.1,5.4-8.1,8.3-13.6,6.4c-0.4-0.1-0.8-0.3-1.1-0.4L32,1302
					c1,0.7,1.9,1.7,2.6,2.7l316.8-177.4C350.5,1125.3,350.2,1123.1,350.6,1120.9z"/>
				<path class="st7" d="M-78.4,1774.2l32.6,73.2c2.2-0.7,4.6-0.8,7,0c0.6,0.2,1.1,0.4,1.6,0.7l138.1-210.5
					c-0.4-0.3-0.8-0.7-1.2-1.1L-78.4,1774.2z"/>
				<path class="st7" d="M-160.6,1525l-19.8-66.4c-1.8,0.3-3.6,0.2-5.4-0.4c-1.8-0.6-3.3-1.6-4.5-2.9L-326,1562.9c0.6,0.9,1,2,1.3,3
					L-160.6,1525z"/>
				<path class="st7" d="M-213.6,1865.1l-40.1-95.7l-99.1,21.5c0.1,1.4-0.1,2.9-0.6,4.3c-0.2,0.6-0.5,1.2-0.8,1.7l137.3,71.5
					C-216,1867.1-214.9,1865.9-213.6,1865.1z"/>
				<path class="st7" d="M-166.7,1163.9c1.5,0.5,2.8,1.3,3.9,2.4L-45.2,1055c-1.5-1.9-2.3-4.3-2.3-6.8l-177.2-17.3
					c-0.1,0.5-0.2,1-0.4,1.4c-0.9,2.6-2.7,4.7-5,6l56.3,125.6C-171.6,1163.2-169.1,1163.1-166.7,1163.9z"/>
				<path class="st7" d="M50.1,1462.5c1.4-0.1,2.8,0.1,4.2,0.6c3.8,1.3,6.4,4.5,7.2,8.2l31.5-3.4c0-1.2,0.2-2.4,0.6-3.6
					c0.8-2.5,2.5-4.5,4.6-5.8L29.7,1321c-0.4,0.2-0.8,0.3-1.3,0.4L50.1,1462.5z"/>
				<path class="st7" d="M-52.7,1854.2c0.9-2.6,2.7-4.7,5-6l-32.4-72.7l-119,92c1,1.2,1.6,2.6,2,4.1l143.8-13.9
					C-53.3,1856.6-53.1,1855.4-52.7,1854.2z"/>
				<path class="st7" d="M-324.8,1572.1c-0.4,1.2-1,2.3-1.7,3.2l221,152.1c1.2-1.4,2.6-2.5,4.3-3.1l-58.7-197.4l-164.3,40.9
					C-324.2,1569.3-324.3,1570.7-324.8,1572.1z"/>
				<path class="st7" d="M-316.3,800L-45,818.1c0.1-0.6,0.2-1.2,0.4-1.8c0.2-0.7,0.5-1.3,0.9-1.9L-151,739l-165.6,58.5
					C-316.4,798.4-316.3,799.2-316.3,800z"/>
				<path class="st7" d="M-42.5,827c-1.6-1.9-2.6-4.3-2.6-6.8L-316.4,802c-0.1,0.6-0.2,1.2-0.4,1.8c-0.3,1-0.8,1.9-1.4,2.8
					L-156.1,945L-42.5,827z"/>
				<path class="st7" d="M-32.3,809.2L5.3,691.9H5.2c-2.9-1-5.2-3.1-6.4-5.7l-147.5,52.1l106.1,74.6
					C-40.1,809.9-36.2,808.4-32.3,809.2z"/>
				<path class="st7" d="M-37.7,1037.5l0.6-207.1c-0.3-0.1-0.5-0.1-0.8-0.2c-1.2-0.4-2.3-1-3.3-1.8l-113.5,118l110.3,94.2
					C-42.5,1038.8-40.1,1037.7-37.7,1037.5z"/>
				<path class="st7" d="M9.7,670.7l26.9-249.8c-0.4-0.1-0.9-0.2-1.3-0.4c-5.7-1.9-8.7-8.1-6.8-13.8c0-0.1,0.1-0.2,0.1-0.2
					l-99.9-47.4c-1.2,2.4-3.1,4.2-5.5,5.2L7.5,670.7C8.2,670.6,9,670.6,9.7,670.7z"/>
				<path class="st7" d="M-160,1170.6l140.8-44.3l-16-67.2c-1.6,0.2-3.3,0.1-5-0.5c-1.4-0.5-2.6-1.2-3.7-2.1l-117.6,111.3
					C-160.9,1168.6-160.4,1169.6-160,1170.6z"/>
				<path class="st7" d="M-28.2,121.8c-2.2-2.3-3.4-5.5-3.1-8.8l-261.4-52.6c-0.1,0.2-0.1,0.4-0.2,0.6c-0.2,0.5-0.4,1-0.6,1.5
					L-88.3,193L-28.2,121.8z"/>
				<path class="st7" d="M-71.4,349.4L27.4,318l-4.7-41.6c-0.8-0.1-1.7-0.2-2.5-0.5c-1.7-0.6-3.2-1.5-4.3-2.7l-88.4,74.7
					C-72.1,348.3-71.7,348.8-71.4,349.4z"/>
				<path class="st7" d="M-260.5-90.4l-39.1,137.6c1.2,0.4,2.3,1.1,3.3,1.8l98.7-93.6l-53.6-48.5C-253.7-90.8-257.1-89.7-260.5-90.4
					z"/>
				<path class="st7" d="M-260.1-111.8l-8.9-166l-32.3,323.9l38.9-137c-5.4-2.1-8.3-8.1-6.4-13.6
					C-267.5-108.6-264-111.2-260.1-111.8z"/>
				<path class="st7" d="M-178.8,1437.6c2,0.7,3.6,1.9,4.9,3.4l134-88.2l-125.3-168.9c-1.5,0.8-3.1,1.2-4.8,1.3l-11.1,252
					C-180.2,1437.1-179.5,1437.3-178.8,1437.6z"/>
				<path class="st7" d="M19.8,255.4l-38.2-130.6c-1.8,0.4-3.7,0.3-5.6-0.4c-1-0.3-1.9-0.8-2.7-1.4l-59.9,71l101.8,64.8
					C16.4,257.3,18,256.1,19.8,255.4z"/>
				<path class="st7" d="M-108.1,1735.7c-0.2-1.6-0.1-3.2,0.5-4.8c0.2-0.6,0.5-1.2,0.8-1.8L-328,1576.8c-1,0.9-2.2,1.6-3.5,2.1
					l79,188.3L-108.1,1735.7z"/>
				<path class="st7" d="M22.2,1321.1c-2-0.7-3.7-1.9-5-3.5l-54.2,35.7l82.2,110.8c0.9-0.6,1.9-1,3-1.2l-21.8-141.2
					C25,1321.7,23.6,1321.6,22.2,1321.1z"/>
				<path class="st7" d="M100.3,1478c-0.8-0.3-1.5-0.6-2.2-1.1l-30.3,40.2l37,101.5c0.5-0.1,1-0.2,1.5-0.3l-3.3-139.8
					C102.2,1478.5,101.2,1478.3,100.3,1478z"/>
				<path class="st7" d="M61.1,1476.9c-1,2.9-3.1,5.1-5.6,6.3l11.6,31.7l29.5-39.1c-1.7-1.6-2.9-3.6-3.3-5.9l-31.5,3.4
					C61.7,1474.4,61.5,1475.6,61.1,1476.9z"/>
				<path class="st7" d="M110.5,868l55,189.8c1.2-0.2,2.4-0.3,3.6-0.1l25.5-107l-81.1-84.4C112.6,867,111.6,867.6,110.5,868z"/>
				<path class="st7" d="M157.5,1072.7l-174.4,54.9l41,172.4c1.6-0.2,3.4-0.1,5,0.5c0.4,0.1,0.8,0.3,1.1,0.4l130.9-223.6
					C159.6,1076.2,158.3,1074.6,157.5,1072.7z"/>
				<path class="st7" d="M-87.2,1730.3c0.9,2.3,1.1,5,0.2,7.5c-0.9,2.6-2.7,4.7-5,6l12.7,28.5L98.4,1635L-87.2,1730.3z"/>
				<path class="st7" d="M-204.1,1863.9c0.5,0.2,1,0.4,1.4,0.6l97.9-122.3c-1.3-1.3-2.3-2.8-2.8-4.5l-144.1,31.3l39.9,95.2
					C-209.4,1863.2-206.7,1863-204.1,1863.9z"/>
				<path class="st7" d="M256.5,682.9L114.4,850.1c2.9,2.8,4.1,7.2,2.7,11.2c-0.5,1.4-1.2,2.6-2.1,3.6l80.2,83.5l63.1-264.5
					C257.7,683.6,257.1,683.3,256.5,682.9z"/>
				<path class="st7" d="M-93.8,1744.7c-2.2,0.7-4.6,0.8-7,0c-0.9-0.3-1.7-0.7-2.5-1.2l-97.7,122.1c0.2,0.1,0.4,0.3,0.5,0.4
					l119.5-92.4L-93.8,1744.7z"/>
				<path class="st7" d="M40.1,1475c-0.1-0.6-0.1-1.2-0.1-1.8l-211.5-23.2c-0.1,0.5-0.2,0.9-0.4,1.4c-1.1,3.2-3.5,5.6-6.4,6.7
					l19.8,66.5L40.1,1475z"/>
				<path d="M659.3,87.6c-5.7-1.9-11.9,1.1-13.8,6.8c-0.7,2.1-0.7,4.3-0.2,6.3l-145.9,53.9c-0.3-0.1-0.5-0.2-0.8-0.3
					c-1.4-0.5-2.9-0.7-4.3-0.6l-43.1-260.4c3.4-0.9,6.3-3.4,7.5-7c1.9-5.7-1.1-11.9-6.8-13.8c-5.7-1.9-11.9,1.1-13.8,6.8
					c-0.8,2.3-0.7,4.6-0.1,6.7L268.9-44.3c-1.3-2.4-3.4-4.3-6.1-5.3c-3.7-1.3-7.6-0.4-10.4,1.9l-91.6-92.7c0.8-1,1.5-2.2,2-3.5
					c1.9-5.7-1.1-11.9-6.8-13.8c-5.7-1.9-11.9,1.1-13.8,6.8c-1.2,3.5-0.5,7.1,1.5,9.8L34.5-46.3c-1.1-1.1-2.5-1.9-4-2.4
					c-5.1-1.7-10.6,0.5-13.1,5.1l-133.5-63.6c1.8-5.7-1.2-11.8-6.8-13.7c-5.7-1.9-11.9,1.1-13.8,6.8c-0.3,1-0.5,2-0.6,3l-110.6,8.2
					c-0.6-3.8-3.3-7.2-7.2-8.5c-1-0.3-2.1-0.5-3.1-0.6l-9-168.3c3.9-0.6,7.4-3.3,8.7-7.3c1.9-5.7-1.1-11.9-6.8-13.8
					c-5.7-1.9-11.9,1.1-13.8,6.8c-0.1,0.4-0.2,0.8-0.3,1.3l-246.9-28.6c0.1-4.6-2.8-9-7.4-10.5c-5.7-1.9-11.9,1.1-13.8,6.8
					c-1.9,5.7,1.1,11.9,6.8,13.8c1.6,0.6,3.3,0.7,4.9,0.5l79.3,355.1c-2.9,1.1-5.3,3.5-6.4,6.6c-1.9,5.7,1.1,11.9,6.8,13.8
					c5.7,1.9,11.9-1.1,13.8-6.8c0.2-0.6,0.3-1.1,0.4-1.7l128,2.3c0.2,4.3,3,8.3,7.4,9.7c1.4,0.5,2.9,0.7,4.3,0.6l58,297
					c-3.3,1-6.1,3.4-7.2,6.9c-1.9,5.7,1.1,11.9,6.8,13.8s11.9-1.1,13.8-6.8c0.4-1.3,0.6-2.6,0.6-3.9l138.7-18.5
					c0.8,3.6,3.4,6.6,7.1,7.9l-1-0.3l-89.7,344.4c-5.2-0.8-10.3,2.1-12.1,7.2c-0.9,2.6-0.7,5.4,0.3,7.7L-318,794.2
					c-1.3-1.9-3.2-3.5-5.6-4.3c-5.7-1.9-11.9,1.1-13.8,6.8s1.1,11.9,6.8,13.8c2.2,0.8,4.5,0.7,6.6,0.1l83.6,208.6
					c-2.4,1.2-4.4,3.4-5.3,6.2c-1.9,5.7,1.1,11.9,6.8,13.8c2.4,0.8,4.8,0.7,7,0l56.3,125.6c-2.2,1.3-4.1,3.3-5,6
					c-1.9,5.7,1.1,11.9,6.8,13.8c0.6,0.2,1.2,0.3,1.8,0.4l-11.1,252c-4.2,0.3-8.1,3.1-9.5,7.4c-1.1,3.2-0.6,6.6,1.1,9.3
					l-135.7,107.6c-1.2-1.3-2.7-2.3-4.5-2.9c-5.7-1.9-11.9,1.1-13.8,6.8c-1.9,5.7,1.1,11.9,6.8,13.8h0.1l-25.8,201.9
					c-4.3,0.2-8.2,3-9.7,7.4c-1.9,5.7,1.1,11.9,6.8,13.8c4.4,1.5,9.1,0,11.9-3.4l137.5,71.6c-0.1,0.1-0.1,0.3-0.2,0.4
					c-1.9,5.7,1.1,11.9,6.8,13.8s11.9-1.1,13.8-6.8c0.5-1.3,0.6-2.7,0.6-4.1l143.7-13.8c0.7,3.7,3.3,7,7.2,8.3
					c5.7,1.9,11.9-1.1,13.8-6.8c1.5-4.5,0-9.2-3.5-12l138.1-210.5c0.5,0.3,1,0.5,1.6,0.7c5.7,1.9,11.9-1.1,13.8-6.8
					c1.9-5.7-1.1-11.9-6.8-13.8c-0.9-0.3-1.8-0.5-2.7-0.5l-3.3-139.8c4-0.5,7.6-3.2,9-7.3c1.9-5.7-1.1-11.9-6.8-13.8
					c-2.5-0.9-5.1-0.7-7.4,0.2L31.4,1320c2.1-1.3,3.7-3.3,4.6-5.8c0.9-2.7,0.7-5.5-0.4-7.9L352.4,1129c1.3,1.9,3.1,3.4,5.5,4.1
					c5.7,1.9,11.9-1.1,13.8-6.8c1.9-5.7-1.1-11.9-6.8-13.8c-1.7-0.6-3.4-0.7-5-0.5l-99.5-427.5c5.4,1.2,10.9-1.8,12.7-7.1
					c1.9-5.7-1.1-11.9-6.8-13.8c-0.5-0.2-1-0.3-1.6-0.4l13.9-160.8c4.5,0,8.7-2.9,10.2-7.4c0.8-2.3,0.7-4.6,0.1-6.7l188.4-78.4
					l-0.2,2.8l2-3.5l1.1-0.5l-0.6-0.5l171.7-300.4c0.3,0.1,0.7,0.3,1,0.4c5.7,1.9,11.9-1.1,13.8-6.8C668.1,95.7,665,89.5,659.3,87.6
					z M351.2,1118.9l-172.9-48.5c1-5.2-2-10.5-7.2-12.3l0,0l25.2-105.7l156.8,163.2C352.3,1116.6,351.7,1117.7,351.2,1118.9z
					 M-360.2,1781.4c-0.7-0.2-1.4-0.4-2.1-0.5l11.6-90.7l14.2-110.9c1.1,0.1,2.1,0.1,3.1,0l78.9,188.2l-98.7,21.4
					C-354.1,1785.6-356.6,1782.7-360.2,1781.4z M-224.5,1029c0-2.6-0.9-5.2-2.6-7.2l71.2-74.1l110.4,94.3c-0.6,0.8-1.1,1.8-1.4,2.8
					c-0.2,0.5-0.3,1-0.4,1.4L-224.5,1029z M-166.7,723c0.5-1.6,0.7-3.1,0.5-4.7l160.9-32.9l-145.3,51.4l-16.9-11.9
					C-167.2,724.3-166.9,723.7-166.7,723z M-233.5,368.1l145.6-172.5l102,64.9c-0.2,0.5-0.5,1-0.6,1.5c-0.8,2.3-0.7,4.6-0.1,6.7
					l-245.1,101.9C-232.2,369.7-232.8,368.9-233.5,368.1z M-446.8,44.8l62.4-116.9L-309.8,49c-1.6,1.3-2.9,3-3.6,5.1
					c-0.2,0.7-0.4,1.4-0.5,2l-127.9-2.3C-441.8,50.1-443.7,46.8-446.8,44.8z M-383.3-74.2L-273-281c0.2,0.1,0.5,0.2,0.7,0.3
					c0.5,0.2,0.9,0.3,1.4,0.4l-32.6,326.9c-1.6,0.1-3.2,0.5-4.7,1.2L-383.3-74.2z M-526.9-318.6c0.1-0.4,0.2-0.8,0.3-1.3l246.9,28.6
					c-0.1,3.7,1.8,7.3,4.9,9.3L-384.5-76.2l-146.2-237.2C-529-314.7-527.6-316.4-526.9-318.6z M281,481.1c-2.1-0.5-4.3-0.4-6.2,0.3
					l-66.5-142l133.2-56.5c1.1,2.1,2.9,3.8,5.1,4.8L281,481.1z M97.3,1625.7c-0.9,2.6-0.7,5.2,0.2,7.5l-185.6,95.3
					c-0.5-0.8-1.1-1.5-1.8-2.2L66.4,1519l36.6,100.3C100.4,1620.5,98.3,1622.8,97.3,1625.7z M44.6,1482.3l-137.4,242.2
					c-0.3-0.1-0.6-0.3-1-0.4c-1.9-0.6-3.8-0.7-5.6-0.4l-58.7-197.3l198.6-49.5C41.3,1479.1,42.7,1481,44.6,1482.3z M-88.8,1721.5
					l135.1-238.2c0.3,0.1,0.6,0.3,1,0.4c2.1,0.7,4.3,0.7,6.3,0.2l12,32.9L-88.8,1721.5z M40.5,1469.9c-0.1,0.4-0.3,0.9-0.3,1.3
					l-211.5-23.2c0-1.9-0.5-3.8-1.4-5.4l134.1-88.2l82.2,110.9C42.2,1466.5,41.1,1468,40.5,1469.9z M-163.5,1182.7
					c0.4-0.3,0.7-0.6,1.1-1l178.6,123.7c-0.3,0.6-0.6,1.2-0.8,1.8c-1,3-0.7,6,0.7,8.6l-54.3,35.7L-163.5,1182.7z M17.4,1303.8
					l-178.5-123.6c0.5-0.7,0.9-1.6,1.2-2.4c0.6-1.7,0.7-3.5,0.4-5.2l140.8-44.3l40.9,172.3C20.4,1301.1,18.7,1302.3,17.4,1303.8z
					 M-33.2,1058.6c3.1-1,5.7-3.5,6.8-6.8c0.2-0.5,0.3-1,0.4-1.4l182.7,18.1c0,0.8,0.1,1.6,0.2,2.4l-174.2,54.8L-33.2,1058.6z
					 M-70.7,351.3L27.7,320l8.9,79.6c-2.9,0.6-5.6,2.4-7.2,5.1l-100-47.5C-70.1,355.2-70.1,353.2-70.7,351.3z M37.3-34.9
					c0.2-0.7,0.4-1.5,0.5-2.2L151-37.7l-0.3,70.6c-3,0.3-5.7,1.7-7.5,4.1L36.4-32.9C36.7-33.5,37.1-34.2,37.3-34.9z M153.4-136.5
					c2.2-0.2,4.3-1.1,5.9-2.4L251-46.3c-0.8,1-1.5,2.2-2,3.5c-0.3,0.8-0.5,1.7-0.5,2.5L153-39.7L153.4-136.5z M248.5-38.2
					c0.2,1.7,0.7,3.3,1.6,4.8l-90.5,69.8c-1.2-1.3-2.7-2.3-4.5-2.9c-0.8-0.3-1.6-0.4-2.5-0.5l0.3-70.6L248.5-38.2z M268.6,487.2
					L49.3,412.8c0.5-2,0.4-4-0.2-5.8l157.4-66.7l66.5,142C271.1,483.4,269.5,485.1,268.6,487.2z M-33.2,1038
					c-0.8-0.3-1.6-0.4-2.5-0.5l0.6-206.8c1,0.1,2,0,2.9-0.2l83,99.6l-81.9,109C-31.7,1038.6-32.4,1038.3-33.2,1038z M157.3,1065
					c-0.2,0.5-0.3,1-0.4,1.4l-38-3.8l-144.7-14.3c0-3.1-1.3-6.1-3.6-8.1l81.6-108.6l107.6,129.2C158.7,1062,157.8,1063.4,157.3,1065
					z M52.1,928.5L-30,829.9c1.3-0.6,2.5-1.3,3.5-2.4l104,24.5l18.5,4.4c-0.5,3.5,0.8,7,3.3,9.4L52.1,928.5z M96.4,854.3L96.4,854.3
					l-121.6-28.6c0.5-0.7,0.9-1.5,1.2-2.4c0.5-1.4,0.7-2.9,0.5-4.3l84.2-42.3l39.8,72.2C98.7,850.2,97.2,852,96.4,854.3z
					 M15.3,690.2c1.7-1.3,3-3,3.7-5.1c0.3-0.8,0.4-1.7,0.5-2.5h0.1l232.4-7.2c0.1,0.9,0.3,1.8,0.7,2.6L61.5,774.1L15.3,690.2z
					 M34.6,265.4c0-3.5-1.7-6.8-4.6-8.8l39.7-68.9l97.3,78c-0.5,0.8-0.9,1.6-1.2,2.5c-0.1,0.3-0.2,0.5-0.2,0.8L34.6,265.4z
					 M47.1,403.3l122.2-123.2c1,0.8,2.1,1.5,3.4,1.9c2.2,0.8,4.5,0.7,6.6,0.1l26.3,56.3L48.3,405.1C48,404.4,47.6,403.8,47.1,403.3z
					 M340.8,274.3c-0.2,0.7-0.4,1.4-0.5,2.1l-56.7-2l-96.5-3.4c0-0.6-0.1-1.2-0.3-1.8l121.1-40.6l35.4,41.6
					C342.2,271.3,341.3,272.7,340.8,274.3z M186.1,267.3c-1.2-2.7-3.4-4.9-6.4-5.9c-1.2-0.4-2.4-0.6-3.7-0.6L153.9,54.4
					c1.5-0.3,2.9-0.9,4.1-1.8L306.5,227L186.1,267.3z M148.2,54c1.2,0.4,2.4,0.6,3.7,0.6L174.1,261c-2.2,0.4-4.1,1.5-5.7,3.1
					L70.8,186l76.4-132.4C147.5,53.8,147.9,53.9,148.2,54z M167.5,278.2L45.6,401.8c-1-0.8-2.1-1.5-3.4-1.9
					c-1.2-0.4-2.5-0.6-3.7-0.6l-9-80l136.6-43.5C166.5,276.7,167,277.5,167.5,278.2z M12.2,671.2c-0.2-0.1-0.3-0.1-0.5-0.1L28,519.3
					l10.6-98.1c2.3,0,4.5-0.7,6.4-2l125.4,147.7L17.4,675C16.1,673.3,14.3,672,12.2,671.2z M181.1,281.4c2.4-1.2,4.4-3.4,5.4-6.2
					c0.2-0.7,0.4-1.4,0.5-2.1l153.2,5.3c0.1,0.9,0.2,1.8,0.5,2.7l-133.3,56.5L181.1,281.4z M359,270.3c-1.2-1.2-2.7-2.2-4.4-2.8
					c-3.4-1.2-7-0.5-9.7,1.4l-34.9-41l175.3-58.8c0.2,0.5,0.5,1,0.8,1.4l-78.2,61.3L359,270.3z M484.5,162.2
					c-0.4,1.7-0.4,3.5,0.1,5.1l-176.1,59l-149-175c0.8-0.9,1.6-1.9,2.1-3L484.5,162.2z M145.4,52.6L69.2,184.7l-80.6-64.6
					c0.5-0.8,0.9-1.6,1.2-2.5c0.8-2.2,0.7-4.6,0.1-6.7L142,48.7C142.9,50.3,144,51.6,145.4,52.6z M-12.6,121.7l80.9,64.8l-39.9,69.2
					c-0.3-0.2-0.7-0.3-1-0.4c-1.9-0.6-3.8-0.7-5.6-0.4l-38.2-130.6C-15,123.7-13.7,122.8-12.6,121.7z M34.1,269
					c0.2-0.5,0.3-1,0.4-1.6l130.9,3.6c-0.1,1,0,2,0.2,3L29.4,317.4l-4.6-41C28.9,276,32.6,273.2,34.1,269z M13.6,691.2L59.7,775
					l-83.6,42c-0.9-3.2-3.2-5.9-6.5-7.2L7.2,692.3C9.4,692.6,11.7,692.2,13.6,691.2z M161.4,1059.6L53.5,930l47.4-63.1
					c0.7,0.5,1.5,0.9,2.4,1.2c1.8,0.6,3.6,0.7,5.4,0.4l55,189.9C162.8,1058.7,162.1,1059.1,161.4,1059.6z M110.2,847.5
					c-2.7-0.9-5.6-0.7-8,0.4l-39.8-72.1l191-96.1c0.4,0.7,0.9,1.3,1.4,1.8l-142,167.3C112,848.3,111.2,847.8,110.2,847.5z
					 M252.5,670.5c-0.3,0.9-0.5,1.9-0.5,2.8l-232.4,7.2c-0.1-1.3-0.5-2.6-1.1-3.8l153.3-108.4l83.3,98
					C253.9,667.5,253,668.9,252.5,670.5z M46.5,417.8c0.9-0.9,1.6-2,2.2-3.2L267.9,489c-0.7,2.8-0.2,5.6,1.2,8l-97,68.6L46.5,417.8z
					 M485.4,159.8l-0.7,0.3L162.3,46.4c0.6-2.4,0.4-4.8-0.5-6.9l115-62.3l209.6,181.2C486,158.8,485.6,159.3,485.4,159.8z
					 M162.2,36.9l89.1-68.8c1.2,1.3,2.7,2.3,4.5,2.9c4,1.4,8.2,0.3,11-2.5l8.3,7.1L162.2,36.9z M149-137c0.8,0.3,1.6,0.4,2.5,0.5
					L151-39.7L37.9-39.1c-0.1-2-0.9-4-2-5.6L145-139.4C146-138.4,147.4-137.5,149-137z M35.2-31.3l92.4,60.4L25.5-27.6
					C29.2-27.1,32.8-28.5,35.2-31.3z M141.8,39.4c-0.1,0.3-0.2,0.6-0.4,0.9c-0.8,2.2-0.7,4.6-0.1,6.7l-152.1,62.2
					c-1.2-2.4-3.4-4.3-6.1-5.3c-2.4-0.8-4.9-0.7-7.2,0.1l-96.4-205.3c1.3-0.8,2.5-2,3.4-3.4L141.8,39.4z M-133.6-102.4
					c1.1,0.9,2.3,1.7,3.7,2.2c2.6,0.9,5.2,0.7,7.5-0.2L-26,104.8c-0.7,0.4-1.3,0.8-1.9,1.4L-194.6-44.6L-133.6-102.4z M-29.2,107.7
					c-0.7,0.9-1.2,1.9-1.6,3c0,0.1-0.1,0.3-0.1,0.4l-261.4-52.6c0.3-3-0.7-5.8-2.6-8l98.8-93.6L-29.2,107.7z M-296.3,49
					c-1-0.8-2.1-1.4-3.3-1.8l39.1-137.6c3.4,0.6,6.9-0.4,9.3-2.7l53.6,48.5L-296.3,49z M-262.5-90.9l-38.9,137l32.3-323.9l8.9,166
					c-3.9,0.6-7.4,3.3-8.7,7.3C-270.7-99-267.9-93-262.5-90.9z M-292.8,61c0.1-0.2,0.1-0.4,0.2-0.6L-31.3,113
					c-0.4,3.3,0.8,6.5,3.1,8.8L-88.3,193L-293.4,62.4C-293.2,62-293,61.5-292.8,61z M-26.7,123.1c0.8,0.6,1.7,1,2.7,1.4
					c1.9,0.6,3.8,0.7,5.6,0.4l38.2,130.6c-1.8,0.7-3.4,1.9-4.6,3.4l-101.8-64.8L-26.7,123.1z M16,273.1c1.2,1.2,2.6,2.2,4.3,2.7
					c0.8,0.3,1.7,0.4,2.5,0.5l4.7,41.6l-98.9,31.5c-0.3-0.6-0.7-1.2-1.1-1.7L16,273.1z M-71.3,359.1l99.9,47.4
					c0,0.1-0.1,0.2-0.1,0.2c-1.9,5.7,1.1,11.9,6.8,13.8c0.4,0.2,0.9,0.3,1.3,0.4L9.7,670.7c-0.7-0.1-1.5-0.1-2.2,0l-84.3-306.4
					C-74.5,363.3-72.5,361.5-71.3,359.1z M-1.2,686.1c1.2,2.6,3.4,4.7,6.4,5.7h0.1l-37.5,117.3c-3.9-0.8-7.8,0.7-10.3,3.6
					l-106.1-74.6L-1.2,686.1z M-43.7,814.5c-0.3,0.6-0.6,1.2-0.9,1.9c-0.2,0.6-0.3,1.2-0.4,1.8L-316.3,800c0-0.8-0.1-1.6-0.3-2.4
					L-151,739L-43.7,814.5z M-316.8,803.7c0.2-0.6,0.3-1.2,0.4-1.8l271.2,18.2c0.1,2.5,1,4.9,2.6,6.8l-113.6,118l-162.1-138.5
					C-317.7,805.7-317.2,804.8-316.8,803.7z M-41.1,828.4c1,0.8,2.1,1.4,3.3,1.8c0.3,0.1,0.5,0.2,0.8,0.2l-0.6,207.1
					c-2.5,0.2-4.8,1.3-6.6,3l-110.3-94.2L-41.1,828.4z M-43.9,1056.5c1,0.9,2.3,1.7,3.7,2.1c1.7,0.6,3.4,0.7,5,0.5l16,67.2
					l-140.8,44.3c-0.4-1-0.9-1.9-1.5-2.8L-43.9,1056.5z M-165.1,1183.8l125.3,168.9l-134,88.2c-1.2-1.5-2.9-2.7-4.9-3.4
					c-0.7-0.3-1.5-0.4-2.2-0.5l11.1-252C-168.2,1185-166.6,1184.6-165.1,1183.8z M-172,1451.4c0.2-0.5,0.3-0.9,0.4-1.4l211.5,23.2
					c0,0.6,0,1.2,0.1,1.8l-198.7,49.5l-19.8-66.5C-175.5,1456.9-173,1454.5-172,1451.4z M-101.3,1724.3c-1.7,0.7-3.1,1.7-4.3,3.1
					l-221-152.1c0.7-0.9,1.3-2,1.7-3.2c0.5-1.4,0.7-2.9,0.6-4.3l164.3-40.9L-101.3,1724.3z M-331.4,1578.8c1.3-0.5,2.5-1.2,3.5-2.1
					l221.2,152.3c-0.3,0.6-0.6,1.2-0.8,1.8c-0.5,1.6-0.7,3.2-0.5,4.8l-144.4,31.4L-331.4,1578.8z M-107.6,1737.7
					c0.5,1.7,1.5,3.3,2.8,4.5l-97.9,122.3c-0.5-0.2-0.9-0.4-1.4-0.6c-2.6-0.9-5.3-0.7-7.7,0.3l-39.9-95.2L-107.6,1737.7z
					 M-200.4,1866c-0.2-0.2-0.4-0.3-0.5-0.4l97.7-122.1c0.8,0.5,1.6,0.9,2.5,1.2c2.4,0.8,4.8,0.7,7,0l12.9,28.9L-200.4,1866z
					 M-92,1743.9c2.3-1.3,4.1-3.3,5-6c0.9-2.6,0.7-5.2-0.2-7.5L98.4,1635l-177.7,137.3L-92,1743.9z M104.9,1618.6l-37-101.5
					l30.3-40.2c0.7,0.4,1.4,0.8,2.2,1.1c0.9,0.3,1.8,0.5,2.7,0.5l3.3,139.8C105.9,1618.4,105.3,1618.5,104.9,1618.6z M96.5,1475.7
					L67,1514.9l-11.6-31.7c2.6-1.2,4.7-3.4,5.6-6.3c0.4-1.2,0.6-2.4,0.6-3.6l31.5-3.4C93.6,1472.1,94.8,1474.2,96.5,1475.7z
					 M45.2,1464.1L-37,1353.3l54.2-35.7c1.3,1.6,2.9,2.8,5,3.5c1.4,0.5,2.8,0.6,4.2,0.6l21.8,141.2
					C47.1,1463.1,46.1,1463.5,45.2,1464.1z M29.2,1300.5c-1.7-0.6-3.4-0.7-5-0.5l-41-172.4l174.4-54.9c0.8,1.8,2,3.4,3.7,4.6
					l-131,223.6C29.9,1300.8,29.6,1300.6,29.2,1300.5z M169.1,1057.8c-1.2-0.2-2.4-0.1-3.6,0.1l-55-189.8c1.1-0.4,2.1-1,3-1.7
					l81.1,84.4L169.1,1057.8z M115,864.9c0.9-1,1.6-2.2,2.1-3.6c1.4-4.1,0.2-8.4-2.7-11.2l142.2-167.2c0.6,0.4,1.2,0.7,1.8,1
					l-63.1,264.5L115,864.9z M256.5,665.1l-83.1-97.9l96.8-68.5c1.2,1.4,2.8,2.6,4.8,3.2c0.5,0.2,1,0.3,1.6,0.4l-13.9,160.8
					C260.5,663.1,258.3,663.8,256.5,665.1z M282.9,481.7L348,289.9l39.1,35.9L283.6,482.1C283.4,481.9,283.2,481.8,282.9,481.7z
					 M349.6,288.5c5.1,0.7,10.1-2.2,11.8-7.3c1.1-3.3,0.6-6.7-1.2-9.4l127.1-99.7c0.3,0.3,0.6,0.6,1,0.9l-100,151.1L349.6,288.5z
					 M492.4,154.1c-1.8,0.5-3.4,1.4-4.8,2.7l-209-180.7l160.9-87.2c1.3,1.9,3.2,3.5,5.5,4.3c1.4,0.5,2.9,0.7,4.3,0.6L492.4,154.1z
					 M431.5-109L277-25.3l-8.8-7.6c0.6-0.8,1.1-1.8,1.5-2.8c0.8-2.3,0.7-4.6,0.1-6.7L431.5-109z M16.6-41.7c-1.2,3.7-0.3,7.5,2,10.2
					L-97.8-96.3L16.6-41.7z M-137.2-109c0.3,1.9,1,3.7,2.2,5.2L-196.1-46l-53.8-48.6c0.7-0.9,1.2-1.9,1.6-3c0.4-1.1,0.6-2.2,0.6-3.3
					L-137.2-109z M-533.9-311.7c0.5-0.2,1-0.4,1.5-0.6l146.8,238.2l-63,118c-0.2-0.1-0.4-0.2-0.6-0.2c-1.8-0.6-3.7-0.7-5.5-0.4
					L-533.9-311.7z M-300.4,68c2.3-0.6,4.4-2,5.9-3.9l204.9,130.4l-145.5,172.3c-0.8-0.6-1.7-1-2.7-1.4c-1.5-0.5-3.1-0.7-4.6-0.5
					L-300.4,68z M-230.7,373.3c-0.1-0.3-0.1-0.5-0.2-0.8L14.2,270.6c0.2,0.3,0.3,0.6,0.5,0.9l-88.5,74.8c-1.1-1-2.3-1.7-3.8-2.2
					c-5.7-1.9-11.9,1.1-13.8,6.8c-0.4,1.3-0.6,2.6-0.6,3.9L-230.7,373.3z M-83.6,364.9c1.7,0.4,3.4,0.4,4.9,0L5.5,671.1
					c-3.3,1-6,3.5-7.2,6.9c-0.5,1.6-0.7,3.1-0.5,4.7l-164.5,33.6c-1-3.2-3.4-5.9-6.7-7.1L-83.6,364.9z M-180.5,729.8
					c4.3,1.5,9,0,11.8-3.3l15.7,11.1L-315.2,795l129.1-69.4C-184.8,727.5-182.9,729-180.5,729.8z M-322.2,809.9
					c1-0.5,1.8-1.1,2.6-1.9l162.1,138.4l-71.2,74c-1-0.8-2.1-1.4-3.3-1.8c-2.2-0.8-4.5-0.7-6.6-0.1L-322.2,809.9z M-230.1,1038.4
					c2.2-1.3,4.1-3.3,5-6c0.2-0.5,0.3-1,0.4-1.4l177.2,17.3c0,2.5,0.8,4.9,2.3,6.8l-117.6,111.3c-1.1-1-2.4-1.9-3.9-2.4
					c-2.4-0.8-4.8-0.7-7,0L-230.1,1038.4z M-190.2,1455.2c1.2,1.3,2.7,2.3,4.5,2.9s3.7,0.7,5.4,0.4l19.8,66.4l-164,40.9
					c-0.3-1.1-0.7-2.1-1.3-3L-190.2,1455.2z M-354.1,1796.9c0.3-0.5,0.6-1.1,0.8-1.7c0.5-1.4,0.7-2.9,0.6-4.3l99.1-21.5l40.1,95.7
					c-1.3,0.9-2.4,2-3.3,3.4L-354.1,1796.9z M-197,1871.6c-0.4-1.5-1-2.9-2-4.1l119-92l32.4,72.7c-2.3,1.3-4.1,3.3-5,6
					c-0.4,1.2-0.6,2.4-0.6,3.5L-197,1871.6z M-37.3,1848.1c-0.5-0.3-1-0.5-1.6-0.7c-2.4-0.8-4.8-0.7-7,0l-32.6-73.2l178.1-137.7
					c0.4,0.4,0.8,0.7,1.2,1.1L-37.3,1848.1z M98.1,1458.4c-2.1,1.3-3.7,3.3-4.6,5.8c-0.4,1.2-0.6,2.4-0.6,3.6l-31.5,3.4
					c-0.7-3.7-3.4-6.9-7.2-8.2c-1.4-0.5-2.8-0.6-4.2-0.6l-21.8-141.2c0.4-0.1,0.9-0.2,1.3-0.4L98.1,1458.4z M34.6,1304.6
					c-0.7-1-1.6-1.9-2.6-2.7l131-223.5c0.4,0.2,0.7,0.3,1.1,0.4c5.6,1.9,11.6-1,13.6-6.4l172.9,48.5c-0.4,2.2-0.1,4.4,0.8,6.4
					L34.6,1304.6z M354.6,1114.3L196.8,950.2l62.4-261.5l98.6,423.9C356.7,1112.9,355.6,1113.5,354.6,1114.3z M288.1,486.5
					c-0.7-1.3-1.6-2.4-2.8-3.4l103.3-156l87.9,80.9L288.1,486.5z M477.6,406.2l-87.8-80.7L490,174.2c0.5,0.3,1.1,0.5,1.6,0.7
					c0.6,0.2,1.2,0.3,1.8,0.4L477.6,406.2z M479.7,404.1l15.7-228.6c4.4-0.1,8.5-2.9,10-7.4s-0.1-9.4-3.7-12.2L646,102.6
					c0.8,1.7,2,3.1,3.6,4.2L479.7,404.1z"/>
			</g>
		</g>
		<g>
			<defs>
				<rect id="SVGID_7_" width="1000" height="1000"/>
			</defs>
			<clipPath id="SVGID_8_">
				<use xlink:href="#SVGID_7_"  style="overflow:visible;"/>
			</clipPath>
			<g class="st8">
				<path class="st7" d="M174,310.8c0.3-0.5,0.6-0.9,0.9-1.3L85,218.8c-0.7,0.6-1.6,1.1-2.5,1.4c-1.6,0.6-3.3,0.5-4.8,0.1
					l-19.4,41.4L174,310.8z"/>
				<path class="st7" d="M101.3,52.2c-0.2,0.1-0.5,0.2-0.8,0.3c-0.9,0.3-1.8,0.4-2.7,0.4L81.5,204.8c1.6,0.3,3,1.1,4.2,2.3
					l71.8-57.5L101.3,52.2z"/>
				<path class="st7" d="M-43,211.6c0.8,0.8,1.5,1.8,1.9,3c0.2,0.5,0.3,1,0.4,1.6l44.5-1.6l68.3-2.4c0-0.4,0.1-0.9,0.2-1.3
					L-16.9,181L-43,211.6z"/>
				<path class="st7" d="M72.6,209.4c0.9-2,2.5-3.6,4.7-4.3c0.9-0.3,1.8-0.4,2.7-0.4L96.4,52.8c-1.1-0.2-2.1-0.7-3-1.3L-15.9,179.8
					L72.6,209.4z"/>
				<path class="st7" d="M76.3,219.8c-1.8-0.9-3.2-2.5-3.9-4.6c-0.2-0.5-0.3-1-0.4-1.6l-112.7,3.9c0,0.7-0.2,1.3-0.4,2l98,41.6
					L76.3,219.8z"/>
				<path class="st7" d="M-51.3,209.6c2.5-0.9,5.2-0.4,7.2,1l25.7-30.1l-129-43.2c-0.2,0.4-0.4,0.7-0.6,1.1l64.5,50.6l29,22.8
					C-53.7,210.7-52.6,210-51.3,209.6z"/>
				<path class="st7" d="M164.9,584.2l-29.3,53.1c1.3,0.9,2.4,2.3,3,4l0,0l89.5-21c-0.3-0.5-0.6-1.1-0.9-1.8
					c-0.4-1.1-0.5-2.1-0.4-3.2L164.9,584.2z"/>
				<path class="st7" d="M90.3,40L24.7-10.6c-0.9,0.9-2,1.7-3.3,2.1c-2.9,1-6,0.2-8.1-1.8L7.2-5.1L90.3,40z"/>
				<path class="st7" d="M231.7,623.3c-0.9-0.4-1.8-1-2.5-1.7L159.5,638l-20.5,4.8c0.4,2.6-0.6,5.2-2.4,6.9l34.7,46.2L231.7,623.3z"
					/>
				<path class="st7" d="M195.6,516.8c-0.2-0.6-0.3-1.2-0.4-1.8l-15-0.5l-156.1-4.8c-0.1,0.7-0.2,1.3-0.5,1.9l140.6,70.7l34-61.7
					C197.1,519.6,196.2,518.3,195.6,516.8z"/>
				<path class="st7" d="M93.9,796.3c0.1,0.3,0.2,0.7,0.3,1.1l28.4-2.8l106-10.5c0-2.3,0.9-4.5,2.6-6l-60-79.9l-79.2,95
					C92.8,794.1,93.5,795.1,93.9,796.3z"/>
				<path class="st7" d="M173.5,312.2L57.7,263.1L8.8,367.6c1.4,0.8,2.6,2.1,3.3,3.6l161.3-54.8C172.9,315,173,313.5,173.5,312.2z"
					/>
				<path class="st7" d="M233.2,623.8l-61.1,73.3l60.2,80.2c0.5-0.3,1-0.6,1.6-0.8s1.2-0.3,1.8-0.4L235.4,624
					C234.6,624,233.9,624,233.2,623.8z"/>
				<path class="st7" d="M90.8,792.3l79.4-95.3l-34.9-46.4c-0.5,0.3-1.1,0.6-1.8,0.9c-1.3,0.4-2.7,0.5-3.9,0.3L89.2,791.5
					C89.8,791.7,90.3,792,90.8,792.3z"/>
				<path class="st7" d="M218.9,102.3L159.4,150l29.4,50.9c0.2-0.1,0.5-0.2,0.8-0.3c1.4-0.5,2.8-0.5,4.1-0.3l28.1-96.1
					C220.6,103.8,219.7,103.2,218.9,102.3z"/>
				<path class="st7" d="M199.6,521.3l-34,61.6l61.5,30.9c0.6-2.4,2.4-4.4,4.8-5.3l-27.6-86.4C202.6,522.4,201,522.1,199.6,521.3z"
					/>
				<path class="st7" d="M184.5,210.7c-0.1-0.4-0.2-0.8-0.3-1.2l-96.3,2.6c0,0.8,0,1.5-0.2,2.2l100.3,32l3.4-30.2
					C188.3,215.8,185.6,213.8,184.5,210.7z"/>
				<path class="st7" d="M105.6,42.4c0.6,1.7,0.5,3.4,0.1,4.9l111.9,45.8c0.9-1.8,2.5-3.2,4.5-3.9c1.8-0.6,3.6-0.5,5.3,0.1
					l70.9-151.1c-1-0.6-1.8-1.5-2.5-2.5l-190.5,106C105.4,42,105.5,42.2,105.6,42.4z"/>
				<path class="st7" d="M100-88c-0.6,0.2-1.2,0.3-1.8,0.4l0.3,71.2l83.3,0.4c0.1-1.5,0.6-2.9,1.5-4.1L103-89.8
					C102.1-89,101.2-88.4,100-88z"/>
				<path class="st7" d="M87.3,215.8c-0.3,0.6-0.6,1.2-1,1.7l89.7,90.9c0.7-0.6,1.6-1.1,2.5-1.4s1.8-0.4,2.7-0.4l6.6-58.8
					L87.3,215.8z"/>
				<path class="st7" d="M196.8,509.4c0.9-1.3,2.2-2.3,3.8-2.8c0.1,0,0.2-0.1,0.3-0.1l-12.2-113.2l-7.6-70.7c-1.7,0-3.3-0.5-4.7-1.5
					L84.2,429.8L196.8,509.4z"/>
				<path class="st7" d="M128.5,636.3c2-0.7,4.1-0.5,5.9,0.3l29.3-53L23.1,512.9c-0.3,0.5-0.7,0.9-1.1,1.3l104.6,123
					C127.2,636.9,127.8,636.6,128.5,636.3z"/>
				<path class="st7" d="M-146.9,135.9l129.5,43.4L92.3,50.6c-0.6-0.6-1.2-1.4-1.5-2.2l-237.6,83.8
					C-146.6,133.4-146.6,134.7-146.9,135.9z"/>
				<path class="st7" d="M83,428.9l92.4-108.7c-0.6-0.7-1.2-1.4-1.6-2.3L12.5,372.6c0.5,2,0.1,4.1-0.9,5.9L83,428.9z"/>
				<path class="st7" d="M23.9,506.1c0.2,0.7,0.4,1.4,0.4,2.1l171,5.3c0.1-1,0.4-1.9,0.8-2.8L83.2,430.9L22,503
					C22.8,503.9,23.5,504.9,23.9,506.1z"/>
				<path class="st7" d="M86.6,208.3c0.4,0.6,0.7,1.2,0.9,1.8c0.1,0.2,0.1,0.4,0.2,0.6l96.4-2.6c0-2.6,1.3-5,3.4-6.5l-29.2-50.7
					L86.6,208.3z"/>
				<path class="st7" d="M454.9,1174.7l-58.1,138.4l72.6,15.8c0.7-2.5,2.5-4.7,5.2-5.5c0.5-0.2,1-0.3,1.5-0.4l-7.6-59.5l-11.3-88.8
					C456.4,1174.9,455.6,1174.8,454.9,1174.7z"/>
				<path class="st7" d="M83.7,791.3L83.7,791.3l-18.6-77.8L-50.2,833.6c0.6,0.7,1.1,1.5,1.4,2.4l127.2-35.7
					C77.7,796.5,79.9,792.6,83.7,791.3z"/>
				<path class="st7" d="M230.1,90.9L352.8-20l-44.9-42.5c-0.8,0.7-1.7,1.2-2.7,1.6c-1.9,0.6-3.8,0.5-5.5-0.2l-70.9,151
					C229.2,90.2,229.6,90.5,230.1,90.9z"/>
				<path class="st7" d="M190.8-7.5c-2.7,0.4-5.4-0.7-7.1-2.7l-68,44.5L190.8-7.5z"/>
				<path class="st7" d="M232.2,94.2c0,0.1,0.1,0.2,0.1,0.3l192.3-38.7c-0.2-2.2,0.5-4.3,1.9-5.9L353.8-19L231,92
					C231.5,92.7,231.9,93.4,232.2,94.2z"/>
				<path class="st7" d="M427.6,48.8c0.7-0.6,1.5-1,2.4-1.3L401.3-53.7c-2.5,0.5-5.1-0.3-6.9-2L354.9-20L427.6,48.8z"/>
				<path class="st7" d="M401-69.5c2.9,0.4,5.4,2.4,6.4,5.3c1.4,4.1-0.7,8.5-4.7,10l28.6,100.8l-23.8-238.3L401-69.5z"/>
				<path class="st7" d="M243.1,779.4c0.4,0.6,0.8,1.3,1,2c0.1,0.4,0.2,0.7,0.3,1.1l130.4-12.7c0-1.9,0.7-3.8,1.9-5.3L324.3,710
					L243.1,779.4z"/>
				<path class="st7" d="M437.5,48.8c1.2,0.9,2.1,2.2,2.7,3.7c0.2,0.5,0.3,1,0.4,1.5l94.1-1.7c0.1-2.7,1.4-5.1,3.7-6.6l-45.9-86
					L437.5,48.8z"/>
				<path class="st7" d="M199.2,204.5c0.2,0.3,0.3,0.7,0.5,1.1c0.6,1.7,0.5,3.4,0.1,4.9l180.3,75c0.4-0.7,0.8-1.3,1.4-1.9
					L274.3,156.7L199.2,204.5z"/>
				<path class="st7" d="M105.1,48.7c-0.6,1.1-1.4,2.1-2.5,2.8l56.1,97.2l59.3-47.5c-0.4-0.6-0.7-1.2-0.9-1.8
					c-0.6-1.7-0.5-3.4-0.1-4.9L105.1,48.7z"/>
				<path class="st7" d="M213.5,517.1l106.9,37.8l12.4-8.7c-0.3-0.4-0.5-0.9-0.6-1.4c-0.4-1.1-0.5-2.3-0.4-3.4L213.5,517.1z"/>
				<path class="st7" d="M24.9-21.2c0.6,0.7,1.1,1.6,1.5,2.6c0.2,0.6,0.3,1.2,0.4,1.9L97-16.4l-0.3-71.2c-1.6-0.1-3.1-0.8-4.4-1.8
					L24.9-21.2z"/>
				<path class="st7" d="M229,786.6c-0.1-0.3-0.2-0.7-0.3-1.1L94.3,798.9c0,0.6-0.1,1.2-0.2,1.7l128.2,40.3l11.7-49.3
					C231.7,790.9,229.8,789.1,229,786.6z"/>
				<path class="st7" d="M7.4,367l48.9-104.5l-98-41.6c-0.8,1.5-2.1,2.8-3.8,3.5L2.8,366.7C4.4,366.3,6,366.5,7.4,367z"/>
				<path class="st7" d="M95.4,37.4c0.6-0.2,1.2-0.3,1.8-0.4L97-15l-70.2-0.4c-0.1,1.3-0.5,2.5-1.2,3.5l66.5,51.3
					C93,38.6,94.1,37.8,95.4,37.4z"/>
				<path class="st7" d="M274.4,1284.5c0.4-0.6,0.8-1.1,1.4-1.6l-115-152.5l-26.9,73.8c1.9,0.9,3.4,2.5,4.2,4.7
					c0.6,1.9,0.5,3.8-0.2,5.6L274.4,1284.5z"/>
				<path class="st7" d="M98.7,37c2.2,0.2,4.2,1.3,5.5,3l78.6-51.4c-0.3-0.5-0.5-1-0.7-1.5s-0.3-1.1-0.4-1.6l-83.3-0.4L98.7,37z"/>
				<path class="st7" d="M274.9,1279.3L175.5,1104c-0.2,0.1-0.5,0.2-0.7,0.3c-1.5,0.5-3.1,0.5-4.6,0.2l-8.8,24.2L274.9,1279.3z"/>
				<path class="st7" d="M223.4,842.8l-30.1,126.8c1.4,0.5,2.6,1.3,3.6,2.4l131.3-91c-0.4-0.6-0.7-1.1-0.9-1.8
					c-0.4-1.3-0.5-2.6-0.3-3.8L223.4,842.8z"/>
				<path class="st7" d="M179.8,1099.4c-0.5,1.6-1.6,2.9-3,3.9l101.1,178.2c0.2-0.1,0.5-0.2,0.7-0.3c1.4-0.5,2.8-0.5,4.1-0.3
					l43.2-145.2L179.8,1099.4z"/>
				<path class="st7" d="M177.6,1090.8c1,0.9,1.8,2,2.2,3.4c0.1,0.3,0.2,0.6,0.3,1l155.6-17.1c0-1.4,0.3-2.8,1-4l-98.6-64.9
					L177.6,1090.8z"/>
				<path class="st7" d="M329.1,882.2l-131.4,91c0.2,0.4,0.4,0.9,0.6,1.4c0.7,2.2,0.5,4.4-0.5,6.3l40,26.3l92.1-124.3
					C329.6,882.7,329.3,882.5,329.1,882.2z"/>
				<path class="st7" d="M189.2,248.2l-6.6,58.6c2.2,0.5,4.1,1.8,5.3,3.7l73.6-34.9c-0.4-1.5-0.4-3,0-4.3L189.2,248.2z"/>
				<path class="st7" d="M-150.9,140.9c-0.4,0.2-0.8,0.4-1.2,0.5s-0.9,0.2-1.3,0.3l11.7,169.9l64.6-59.4L-150.9,140.9z"/>
				<path class="st7" d="M425,57.7c0-0.1-0.1-0.3-0.1-0.4L232.6,95.9c0.3,2.4-0.6,4.8-2.3,6.5l44.2,52.4l150.9-96.1
					C425.3,58.4,425.1,58,425,57.7z"/>
				<path class="st7" d="M-162.3,136.5c-1.1-3.3,0.1-6.9,2.7-8.9l-106.2-39.2c-0.6,1.2-1.5,2.3-2.6,3.1l125,218.7L-154.9,142
					C-158.1,141.8-161.2,139.7-162.3,136.5z"/>
				<path class="st7" d="M140.8,1090c0.3,0.9,0.4,1.8,0.4,2.7l23.2,2.5c0.5-2.7,2.5-5,5.3-6c1-0.3,2.1-0.5,3.1-0.4l16-103.9
					c-0.3-0.1-0.6-0.2-0.9-0.3l-50.4,101.2C139,1086.7,140.2,1088.2,140.8,1090z"/>
				<path class="st7" d="M186,970.6L89.7,806.2c-0.3,0.1-0.5,0.2-0.8,0.3c-4.1,1.4-8.5-0.7-10-4.7l-127.2,35.7
					c0.3,1.6,0.1,3.2-0.6,4.7l233,130.5C184.6,971.9,185.3,971.2,186,970.6z"/>
				<path class="st7" d="M64.8,711.8L18.9,519.4l-72.6,311.8c0.9,0.3,1.7,0.7,2.5,1.3L64.8,711.8z"/>
				<path class="st7" d="M-0.3,368.3l-76-114.7L-141,313l138.7,57.7C-1.9,369.8-1.2,369-0.3,368.3z"/>
				<path class="st7" d="M409.9-193.7c-0.3,0.1-0.7,0.2-1,0.3l24,240.5c1.2,0,2.4,0.3,3.4,0.9l55.3-89.8l-81.2-152.1
					C410.2-193.8,410.1-193.8,409.9-193.7z"/>
				<path class="st7" d="M597.2-221.6c-0.1-0.3-0.2-0.6-0.2-0.9l-181.7,21c0.1,2.7-1.3,5.3-3.6,6.9l80.8,151.4L600-217.8
					C598.8-218.7,597.8-220,597.2-221.6z"/>
				<path class="st7" d="M310.5-67.4c-0.2,1.4-0.8,2.7-1.6,3.8l45,42.6l39.6-35.8c-0.5-0.7-0.9-1.4-1.2-2.2
					c-0.3-0.8-0.4-1.6-0.4-2.4L310.5-67.4z"/>
				<path class="st7" d="M-107.9-67.4L5.8-5.8l6.5-5.6c-0.4-0.6-0.8-1.3-1.1-2.1c-0.6-1.7-0.5-3.4-0.1-4.9L-107.9-67.4z"/>
				<path class="st7" d="M195.9-10.3L281.6-58l-84.2,40.1C198.2-15.2,197.6-12.4,195.9-10.3z"/>
				<path class="st7" d="M-149.1,128.1L4.6-4.8l-118.4-64.1c-0.9,1.4-2.3,2.5-4.1,3.1c-1,0.4-2.1,0.5-3.1,0.4l-31.7,191.5
					C-151.3,126.5-150.1,127.2-149.1,128.1z"/>
				<path class="st7" d="M426.3,60l-150.7,95.9l107,126.8c0.6-0.4,1.3-0.8,2-1c1.1-0.4,2.3-0.5,3.4-0.4l42.7-218.5
					C428.9,62.4,427.3,61.4,426.3,60z"/>
				<path class="st7" d="M493.3-41.7l46.3,86.8c0.1-0.1,0.3-0.1,0.4-0.2c1.3-0.5,2.7-0.5,4-0.3l58.3-261.2c-0.4-0.1-0.7-0.3-1.1-0.4
					L493.3-41.7z"/>
				<path class="st7" d="M199.2,211.9c-0.1,0.2-0.3,0.5-0.4,0.7l65.1,55c0.8-0.7,1.7-1.3,2.8-1.6c4.2-1.4,8.7,0.8,10.1,5
					c0.3,1,0.5,1.9,0.4,2.9l102.1,13.6c0-0.2,0.1-0.4,0.2-0.6L199.2,211.9z"/>
				<path class="st7" d="M267.5,281.3l-62,225.3c2.4,0.7,4.4,2.5,5.3,5.1c0.4,1.1,0.5,2.3,0.4,3.4l121,24.7c0.7-2.3,2.5-4.3,4.9-5.2
					l-66-253.4C269.9,281.6,268.7,281.6,267.5,281.3z"/>
				<path class="st7" d="M-147.5,130.4l0.5,0.2L90.2,46.9c-0.4-1.8-0.3-3.5,0.4-5.1L6-4l-154.2,133.3
					C-147.9,129.6-147.7,130-147.5,130.4z"/>
				<path class="st7" d="M469.2,1330.4l-72.9-15.9l-29.5,70.4c1,0.6,1.8,1.5,2.4,2.5l101-52.6c-0.2-0.4-0.4-0.8-0.6-1.3
					C469.2,1332.5,469.1,1331.4,469.2,1330.4z"/>
				<path class="st7" d="M243.3,1372l24-53.8l-131-101.3c-0.3,0.3-0.6,0.5-0.9,0.8L237,1372.5c0.4-0.2,0.8-0.4,1.2-0.5
					C239.9,1371.4,241.7,1371.4,243.3,1372z"/>
				<path class="st7" d="M342.4,549.7c-3.2,1.1-6.6,0-8.7-2.4l-11.6,8.1l119.3,42.2l-95-51.1C345.5,548,344.1,549.1,342.4,549.7z"/>
				<path class="st7" d="M268.5,1319l-23.8,53.5c1.7,0.9,3,2.5,3.7,4.4c0.3,0.9,0.4,1.7,0.4,2.6l105.8,10.2c0.3-1.1,0.8-2.1,1.5-3
					L268.5,1319z"/>
				<path class="st7" d="M375.2,772.4c-0.1-0.4-0.2-0.7-0.3-1.1L244.6,784c0,1.8-0.6,3.6-1.7,5l86.5,81.9c0.8-0.8,1.8-1.4,2.9-1.7
					c1.7-0.6,3.5-0.5,5.2,0l41.4-92.4C377.2,775.8,375.9,774.3,375.2,772.4z"/>
				<path class="st7" d="M346.2,1085.6c-1.3,0.5-2.7,0.5-4,0.3l-14.5,48.9l120.7,30.1c0.2-0.8,0.5-1.5,1-2.2l-99.8-79.2
					C348.7,1084.4,347.6,1085.1,346.2,1085.6z"/>
				<path class="st7" d="M444.7,607.3L325.5,709.1l52.4,54.4c0.7-0.6,1.5-1,2.4-1.3c1.6-0.6,3.3-0.5,4.9-0.1l61.5-153.5
					C445.9,608.3,445.3,607.8,444.7,607.3z"/>
				<path class="st7" d="M141.1,1094.2c-0.3,1.7-1.2,3.2-2.5,4.3l21.7,28.8l8.5-23.3c-1.9-0.9-3.4-2.5-4.2-4.7
					c-0.3-0.9-0.4-1.8-0.4-2.7L141.1,1094.2z"/>
				<path class="st7" d="M132.4,1203.6l27.2-74.7l-22.3-29.5c-0.5,0.3-1,0.6-1.6,0.8c-0.7,0.2-1.3,0.4-2,0.4l-2.4,102.9
					C131.7,1203.5,132.1,1203.5,132.4,1203.6z"/>
				<path class="st7" d="M176.4,1089.9l60.4-81.5l-39.9-26.2c-0.9,1.2-2.2,2.1-3.7,2.6c-1,0.3-2.1,0.5-3.1,0.4l-16,103.9
					C174.9,1089.2,175.7,1089.5,176.4,1089.9z"/>
				<path class="st7" d="M188.1,969.6c1.2-0.4,2.5-0.5,3.7-0.3L222,842.4L93.7,802c-0.6,1.3-1.5,2.5-2.7,3.4l96.3,164.5
					C187.6,969.8,187.8,969.7,188.1,969.6z"/>
				<path class="st7" d="M357.4,1385.3l-71.9-89.8c-0.6,0.4-1.2,0.7-1.8,0.9c-1.7,0.6-3.5,0.5-5.1,0l-9.5,21.3l87.9,68
					C357.2,1385.5,357.3,1385.4,357.4,1385.3z"/>
				<path class="st7" d="M277.2,1295.8c-1.7-0.9-3-2.5-3.7-4.4c-0.6-1.9-0.5-3.8,0.2-5.6l-136.5-70.1l130.7,101L277.2,1295.8z"/>
				<path class="st7" d="M-47.6,225.1c-3.7,0.5-7.4-1.6-8.7-5.3c-0.8-2.4-0.4-4.9,0.9-6.9l-93.5-73.4c-0.2,0.2-0.5,0.5-0.7,0.7
					L-76,251.3L-47.6,225.1z"/>
				<path class="st7" d="M288.8,1291.2c-0.4,1.3-1.1,2.4-2.1,3.3l72,90c0.3-0.2,0.7-0.3,1-0.5c1.9-0.7,3.9-0.5,5.6,0.2l29.4-70
					L288.8,1291.2z"/>
				<path class="st7" d="M1.4,367.2l-47.9-141.1l-28.8,26.4L0.9,367.4C1.1,367.4,1.3,367.3,1.4,367.2z"/>
				<path class="st7" d="M66,710.6l59-61.4c-0.7-0.8-1.2-1.7-1.5-2.7c-1-3-0.1-6.2,2-8.3l-104.6-123c-0.4,0.3-0.9,0.5-1.3,0.8
					L66,710.6z"/>
				<path class="st7" d="M87.8,791.1l40.4-139.7c-0.8-0.3-1.5-0.7-2.2-1.2l-59.7,62.1L85.2,791C86.1,790.9,87,790.9,87.8,791.1z"/>
				<path class="st7" d="M20.9,502.1l61.2-72l-71.3-50.4c-0.9,1.1-2.1,1.9-3.5,2.4c-0.4,0.1-0.8,0.2-1.2,0.3l10.2,118.3
					C18,500.7,19.5,501.2,20.9,502.1z"/>
				<path class="st7" d="M241.8,612c0.3,0.4,0.5,0.9,0.6,1.4c0.1,0.4,0.2,0.9,0.3,1.3l199.5-13.4c0-0.6,0.1-1.2,0.2-1.8l-121.8-43.1
					L241.8,612z"/>
				<path class="st7" d="M205.8,521.8C205.8,521.8,205.7,521.8,205.8,521.8l27.5,86.3c2.9-0.6,5.8,0.5,7.6,2.7l78-54.9l-108.5-38.4
					C209.6,519.5,208,521,205.8,521.8z"/>
				<path class="st7" d="M227.2,104.4c-1.4,0.5-2.8,0.5-4.1,0.3l-28.1,96c1.3,0.5,2.5,1.4,3.4,2.5l74.9-47.7l-44.1-52.2
					C228.6,103.8,227.9,104.1,227.2,104.4z"/>
				<path class="st7" d="M442.7,604.1c-0.1-0.4-0.2-0.9-0.3-1.3l-199.5,13.4c0,1.9-0.7,3.6-1.9,5l83.5,86.8l119.3-101.9
					C443.3,605.5,442.9,604.9,442.7,604.1z"/>
				<path class="st7" d="M194.7,215.7c-0.6,0.2-1.2,0.3-1.8,0.4l-3.4,30.6l72.7,23.1c0.2-0.4,0.5-0.9,0.8-1.2l-65.1-54.9
					C197,214.6,195.9,215.3,194.7,215.7z"/>
				<path class="st7" d="M262.1,277l-73.5,34.9c0,0.1,0,0.1,0.1,0.2c1.4,4.2-0.8,8.7-5,10.1c-0.3,0.1-0.7,0.2-1,0.3l19.8,183.8
					c0.5-0.1,1.1,0,1.6,0l62-225.4C264.4,280.1,262.9,278.7,262.1,277z"/>
				<path class="st7" d="M237.4,623.6c-0.2,0.1-0.4,0.1-0.6,0.2l0.5,152.4c1.8,0.2,3.5,1,4.9,2.2l81.1-69.3l-83.5-86.8
					C239.1,622.8,238.3,623.2,237.4,623.6z"/>
				<path class="st7" d="M331.1,883.7L238.9,1008l98.6,64.9c0.9-1.1,2.1-2,3.6-2.5c0.5-0.2,1.1-0.3,1.6-0.4l-8.1-185.4
					C333.4,884.6,332.2,884.3,331.1,883.7z"/>
				<path class="st7" d="M336.1,1080.6c-0.1-0.3-0.2-0.7-0.3-1l-155.6,17.1c0,0.5,0,0.9-0.1,1.3l146.2,36.4l14.5-48.9
					C338.7,1084.6,336.9,1082.9,336.1,1080.6z"/>
				<path class="st7" d="M327.3,1136.2l-43.2,145.2c1.2,0.5,2.3,1.3,3.2,2.3l162.6-111.9c-0.5-0.7-1-1.5-1.3-2.4
					c-0.4-1-0.5-2.1-0.4-3.1L327.3,1136.2z"/>
				<path class="st7" d="M239.2,791.6c-1.2,0.4-2.5,0.5-3.7,0.3l-11.7,49.4L327.3,874c0.3-0.7,0.6-1.4,1.1-2l-86.5-81.9
					C241.1,790.7,240.2,791.3,239.2,791.6z"/>
				<path class="st7" d="M453.4,1174.4c-0.9-0.3-1.8-0.8-2.6-1.5l-162.7,112c0.2,0.4,0.4,0.9,0.6,1.3c0.4,1.2,0.5,2.4,0.4,3.5
					l106.3,23.1L453.4,1174.4z"/>
				<path d="M612.4-226.7c-1.4-4.2-6-6.4-10.1-5c-3.4,1.2-5.5,4.4-5.4,7.8l-181.7,21c-0.1-0.3-0.1-0.6-0.2-0.9
					c-1.4-4.2-6-6.4-10.1-5c-4.2,1.4-6.4,6-5,10.1c1,2.9,3.5,4.9,6.4,5.3l-6.7,123.8c-0.8,0-1.5,0.2-2.3,0.4c-2.9,1-4.8,3.4-5.3,6.3
					l-81.3-6c0-0.7-0.2-1.5-0.4-2.2c-1.4-4.2-6-6.4-10.1-5c-4.2,1.4-6.4,5.9-5,10.1L197-19.2c-1.8-3.4-5.9-5.1-9.6-3.8
					c-1.1,0.4-2.1,1-3,1.8l-80.3-69.7c1.5-2,1.9-4.7,1.1-7.2c-1.4-4.2-6-6.4-10.1-5c-4.2,1.4-6.4,6-5,10.1c0.3,1,0.8,1.8,1.5,2.6
					L23.9-22.3c-2.1-1.7-4.9-2.3-7.6-1.4c-2,0.7-3.6,2.1-4.5,3.9L-112.8-71c0.5-1.6,0.5-3.3-0.1-4.9c-1.4-4.2-6-6.4-10.1-5
					c-4.2,1.4-6.4,6-5,10.1c0.9,2.6,3,4.5,5.5,5.2l-31.7,191.5c-1-0.1-2.1,0.1-3.1,0.4c-0.2,0.1-0.4,0.2-0.6,0.2l-107.3-39.7
					c0.4-1.5,0.4-3.1-0.2-4.6c-1.4-4.2-6-6.4-10.1-5c-4.2,1.4-6.4,6-5,10.1c1.4,4.2,6,6.4,10.1,5c0.3-0.1,0.5-0.2,0.7-0.3l126.3,221
					l-0.4,0.4l0.8,0.3l1.5,2.6l-0.1-2L-3,372c-0.5,1.6-0.5,3.3,0.1,4.9c1.1,3.3,4.2,5.4,7.5,5.4l10.2,118.3
					c-0.4,0.1-0.8,0.2-1.2,0.3c-4.2,1.4-6.4,6-5,10.1c1.3,3.9,5.4,6.1,9.3,5.2l-73.2,314.5c-1.2-0.2-2.4-0.1-3.7,0.3
					c-4.2,1.4-6.4,6-5,10.1c1.4,4.2,6,6.4,10.1,5c1.7-0.6,3.1-1.7,4-3l233,130.5c-0.8,1.8-0.9,3.8-0.3,5.8c0.6,1.8,1.8,3.3,3.4,4.2
					l-50.4,101.2c-1.7-0.7-3.6-0.7-5.5-0.1c-4.2,1.4-6.4,6-5,10.1c1,3,3.7,5,6.7,5.4l-2.4,102.9c-0.7,0-1.4,0.2-2,0.4
					c-4.2,1.4-6.4,6-5,10.1c1.4,4.2,6,6.4,10.1,5c0.4-0.1,0.8-0.3,1.2-0.5L235.5,1373c-2.6,2-3.7,5.5-2.6,8.8c1.4,4.2,6,6.4,10.1,5
					c2.8-1,4.8-3.3,5.3-6.1l105.7,10.2c-0.1,1,0.1,2,0.4,3c1.4,4.2,6,6.4,10.1,5c4.2-1.4,6.4-6,5-10.1c0-0.1-0.1-0.2-0.1-0.3
					L471,1336c2.1,2.5,5.5,3.6,8.8,2.5c4.2-1.4,6.4-6,5-10.1c-1.1-3.2-4-5.2-7.1-5.4l-19-148.6h0.1c4.2-1.4,6.4-6,5-10.1
					c-1.4-4.2-6-6.4-10.1-5c-1.3,0.4-2.4,1.2-3.3,2.2l-99.8-79.2c1.2-2,1.6-4.5,0.8-6.8c-1.1-3.1-3.9-5.2-7-5.4l-8.2-185.4
					c0.4-0.1,0.9-0.2,1.3-0.3c4.2-1.4,6.4-6,5-10.1c-0.7-1.9-2-3.5-3.6-4.4l41.4-92.4c1.6,0.6,3.4,0.6,5.2,0c4.2-1.4,6.4-6,5-10.1
					c-0.7-2-2.1-3.6-3.9-4.5L448,609.2c1.5,0.5,3.2,0.5,4.9-0.1c4.2-1.4,6.4-6,5-10.1c-1.4-4.2-6-6.4-10.1-5
					c-1.7,0.6-3.1,1.7-4.1,3.2l-96.4-51.9c0.7-1.7,0.9-3.8,0.2-5.7c-1.3-3.8-5.1-5.9-8.9-5.3l-66-253.4l-0.7,0.2
					c2.7-0.9,4.6-3.2,5.2-5.8l102.1,13.6c0,1,0.1,1.9,0.4,2.9c1.4,4.2,6,6.4,10.1,5c4.2-1.4,6.4-6,5-10.1c-0.9-2.6-2.9-4.4-5.3-5.1
					L432,63.1c1,0.1,2.1-0.1,3.1-0.4c3.2-1.1,5.3-4,5.4-7.2l94.1-1.7c0.1,0.4,0.2,0.8,0.3,1.3c1.4,4.2,6,6.4,10.1,5
					c4.2-1.4,6.4-6,5-10.1c-0.8-2.3-2.6-4.1-4.7-4.9l58.3-261.3c1.2,0.2,2.4,0.1,3.6-0.4C611.6-218,613.8-222.5,612.4-226.7z
					 M534.6,52.3L440.5,54c-0.1-0.5-0.2-1-0.4-1.5c-0.5-1.5-1.5-2.8-2.7-3.7l54.9-89.1l45.9,86C536,47.2,534.6,49.7,534.6,52.3z
					 M380,285.5l-180.3-75c0.5-1.6,0.5-3.3-0.1-4.9c-0.1-0.4-0.3-0.7-0.5-1.1l75.1-47.8l107.1,126.9
					C380.9,284.2,380.4,284.8,380,285.5z M332.2,544.7c0.2,0.5,0.4,1,0.6,1.4l-12.4,8.7L213.5,517l118.3,24.2
					C331.8,542.4,331.9,543.6,332.2,544.7z M374.8,769.8l-130.4,12.7c-0.1-0.4-0.2-0.7-0.3-1.1c-0.3-0.7-0.6-1.4-1-2l81.2-69.4
					l52.4,54.5C375.5,766,374.8,767.9,374.8,769.8z M476.1,1323c-0.5,0.1-1,0.2-1.5,0.4c-2.6,0.9-4.5,3-5.2,5.5l-72.6-15.8
					l58.1-138.4c0.7,0.1,1.5,0.1,2.3,0l11.3,88.8L476.1,1323z M-48.8,836c-0.3-0.9-0.8-1.7-1.4-2.4L65.2,713.5l18.6,77.8l0,0
					c-3.8,1.3-6,5.2-5.3,9L-48.8,836z M190.8-7.5l-75.1,41.8l68-44.5C185.4-8.2,188.1-7.2,190.8-7.5z M305.2-61c1-0.4,2-0.9,2.7-1.6
					L352.8-20L230.1,90.9c-0.4-0.4-0.9-0.7-1.4-1l70.9-151C301.3-60.4,303.3-60.3,305.2-61z M402.7-54.1c4-1.5,6.1-5.9,4.7-10
					c-1-2.9-3.5-4.9-6.4-5.3l6.6-122.2l23.8,238.3L402.7-54.1z M394.4-55.7c1.8,1.7,4.4,2.4,6.9,2L430,47.5
					c-0.9,0.3-1.7,0.8-2.4,1.3L354.9-20L394.4-55.7z M426.5,49.9c-1.4,1.6-2.1,3.7-1.9,5.9L232.3,94.5c0-0.1,0-0.2-0.1-0.3
					c-0.3-0.8-0.7-1.6-1.2-2.2L353.8-19L426.5,49.9z M261.6,275.6L188,310.5c-1.2-2-3.1-3.3-5.3-3.7l6.6-58.6l72.3,23
					C261.2,272.6,261.2,274.1,261.6,275.6z M138,1208.8c-0.7-2.1-2.3-3.8-4.2-4.7l26.9-73.8l115,152.5c-0.5,0.5-1,1-1.4,1.6
					l-136.6-70.1C138.5,1212.6,138.6,1210.7,138,1208.8z M174.8,1104.3c0.2-0.1,0.5-0.2,0.7-0.3l99.4,175.2l-113.6-150.6l8.8-24.2
					C171.6,1104.9,173.2,1104.9,174.8,1104.3z M278.6,1281.2c-0.2,0.1-0.5,0.2-0.7,0.3l-101.1-178.2c1.4-1,2.4-2.4,3-3.9l146.1,36.4
					L282.7,1281C281.4,1280.7,280,1280.7,278.6,1281.2z M335.7,1078.1l-155.7,17c-0.1-0.3-0.1-0.6-0.3-1c-0.5-1.4-1.2-2.5-2.2-3.4
					l60.5-81.6l98.6,64.9C336,1075.3,335.7,1076.7,335.7,1078.1z M237.7,1007.2l-40-26.3c1-1.9,1.3-4.2,0.5-6.3
					c-0.2-0.5-0.4-0.9-0.6-1.4l131.4-91c0.2,0.3,0.5,0.5,0.8,0.7L237.7,1007.2z M327.3,879.2c0.2,0.7,0.5,1.3,0.9,1.8l-131.3,91
					c-0.9-1.1-2.2-2-3.6-2.4l30.1-126.8L327,875.4C326.7,876.7,326.8,878,327.3,879.2z M222.3,840.9L94.1,800.6
					c0.1-0.6,0.2-1.1,0.2-1.7l134.4-13.3c0.1,0.4,0.2,0.7,0.3,1.1c0.8,2.5,2.7,4.2,5,5L222.3,840.9z M-45.4,224.5
					c1.7-0.7,3-2,3.8-3.5l98,41.6L7.4,367c-1.4-0.5-3-0.6-4.6-0.3L-45.4,224.5z M96.7-87.6L97-16.4l-70.2-0.4
					c-0.1-0.6-0.2-1.3-0.4-1.9c-0.3-1-0.8-1.8-1.5-2.6l67.4-68.2C93.6-88.4,95.1-87.8,96.7-87.6z M26.8-15.3L97-14.9l0.2,52
					c-0.6,0.1-1.2,0.2-1.8,0.4c-1.3,0.4-2.4,1.2-3.3,2.1L25.6-11.8C26.2-12.9,26.6-14.1,26.8-15.3z M181.8-14.5
					c0.1,0.5,0.2,1.1,0.4,1.6s0.4,1,0.7,1.5L104.2,40c-1.4-1.7-3.4-2.8-5.5-3l-0.2-51.9L181.8-14.5z M217.1,99.4
					c0.2,0.7,0.5,1.3,0.9,1.8l-59.3,47.5l-56.1-97.2c1.1-0.7,1.9-1.7,2.5-2.8L217,94.5C216.5,96,216.5,97.7,217.1,99.4z
					 M184.1,208.1l-96.4,2.6c-0.1-0.2-0.1-0.4-0.2-0.6c-0.2-0.7-0.5-1.3-0.9-1.8l71.6-57.4l29.2,50.7
					C185.4,203.1,184.1,205.5,184.1,208.1z M234,776.5c-0.6,0.2-1.1,0.5-1.6,0.8l-60.2-80.2l61.1-73.3c0.7,0.1,1.4,0.2,2.1,0.1
					l0.5,152.1C235.2,776.2,234.6,776.3,234,776.5z M139,642.8l20.5-4.8l69.7-16.4c0.7,0.7,1.6,1.3,2.5,1.7l-60.5,72.5l-34.7-46.2
					C138.4,648,139.3,645.4,139,642.8z M231.2,778.1c-1.7,1.5-2.6,3.7-2.6,6l-106,10.5l-28.4,2.8c-0.1-0.4-0.2-0.7-0.3-1.1
					c-0.4-1.2-1.1-2.2-1.9-3.1l79.2-95L231.2,778.1z M227.3,618.5c0.2,0.6,0.5,1.2,0.9,1.8l-89.5,21l0,0c-0.6-1.7-1.6-3-3-4
					l29.3-53.1l61.9,31.1C226.8,616.4,226.9,617.5,227.3,618.5z M164.3,582.3L23.7,511.6c0.2-0.6,0.4-1.3,0.5-1.9l156.1,4.8l15,0.5
					c0.1,0.6,0.2,1.2,0.4,1.8c0.5,1.6,1.5,2.8,2.7,3.8L164.3,582.3z M12,371.2c-0.7-1.6-1.9-2.8-3.3-3.6l48.9-104.5l115.8,49.1
					c-0.4,1.4-0.5,2.8-0.2,4.3L12,371.2z M-148,138.3c0.2-0.3,0.4-0.7,0.6-1.1l129,43.2l-25.7,30.1c-2-1.4-4.7-1.9-7.2-1
					c-1.3,0.4-2.4,1.2-3.2,2.1l-29-22.8L-148,138.3z M82.5,220.3c0.9-0.3,1.8-0.8,2.5-1.4l89.9,90.6c-0.3,0.4-0.7,0.9-0.9,1.3
					L58.3,261.7l19.4-41.4C79.2,220.8,80.9,220.8,82.5,220.3z M81.5,204.8L97.9,53c0.9,0,1.8-0.1,2.7-0.4c0.3-0.1,0.5-0.2,0.8-0.3
					l56.2,97.4l-71.8,57.5C84.6,206,83.1,205.2,81.5,204.8z M93.4,51.5c0.9,0.6,1.9,1.1,3,1.3L80.1,204.7c-0.9,0-1.8,0.1-2.7,0.4
					c-2.2,0.7-3.9,2.4-4.7,4.3l-88.5-29.7L93.4,51.5z M72.2,210.8c-0.1,0.4-0.2,0.9-0.2,1.3l-68.3,2.4l-44.5,1.6
					c-0.1-0.5-0.2-1-0.4-1.6c-0.4-1.2-1-2.2-1.9-3l26.1-30.6L72.2,210.8z M-40.7,217.6L72,213.7c0.1,0.5,0.2,1,0.4,1.6
					c0.7,2.1,2.1,3.6,3.9,4.6L57,261.2l-98-41.6C-40.9,219-40.8,218.3-40.7,217.6z M176.5,321.2c1.4,1,3,1.5,4.7,1.5l7.6,70.7
					L201,506.5c-0.1,0-0.2,0.1-0.3,0.1c-1.6,0.5-2.9,1.5-3.8,2.8L84.2,429.8L176.5,321.2z M178.5,307c-0.9,0.3-1.8,0.8-2.5,1.4
					l-89.7-90.9c0.4-0.5,0.7-1.1,1-1.7l100.5,32l-6.6,58.8C180.3,306.6,179.4,306.7,178.5,307z M90.7,48.3c0.4,0.8,0.9,1.6,1.5,2.2
					L-17.4,179.3l-129.5-43.4c0.3-1.2,0.3-2.5,0-3.7L90.7,48.3z M12.5,372.6l161.3-54.8c0.4,0.9,0.9,1.7,1.6,2.3L83,428.9
					l-71.4-50.5C12.6,376.8,13,374.7,12.5,372.6z M83.2,430.9L196,510.7c-0.4,0.9-0.7,1.8-0.8,2.8l-171-5.3c0-0.7-0.2-1.4-0.4-2.1
					c-0.4-1.2-1-2.2-1.9-3L83.2,430.9z M23.1,512.9l140.5,70.7l-29.3,53c-1.8-0.8-3.9-1-5.9-0.3c-0.7,0.2-1.3,0.6-1.9,0.9L22,514.2
					C22.4,513.8,22.8,513.4,23.1,512.9z M133.6,651.5c0.6-0.2,1.2-0.5,1.8-0.9l34.9,46.4l-79.4,95.3c-0.5-0.3-1-0.6-1.6-0.9
					l40.4-139.7C131,652,132.3,651.9,133.6,651.5z M227.1,613.9L165.6,583l34-61.6c1.4,0.7,3,1,4.7,0.8l27.6,86.4
					C229.5,609.5,227.8,611.5,227.1,613.9z M188,246.3L87.8,214.4c0.2-0.7,0.2-1.5,0.2-2.2l96.3-2.6c0.1,0.4,0.2,0.8,0.3,1.2
					c1,3.1,3.8,5.1,6.8,5.4L188,246.3z M189.5,200.6c-0.3,0.1-0.5,0.2-0.8,0.3L159.4,150l59.5-47.6c0.8,0.8,1.8,1.5,2.8,1.9
					l-28.1,96.1C192.3,200,190.9,200.1,189.5,200.6z M298.3-61.8L227.4,89.3c-1.6-0.6-3.5-0.7-5.3-0.1c-2,0.7-3.6,2.1-4.5,3.9
					l-112-45.8c0.5-1.5,0.5-3.3-0.1-4.9c-0.1-0.2-0.2-0.4-0.3-0.7l190.5-106C296.5-63.2,297.3-62.4,298.3-61.8z M181.7-16l-83.3-0.4
					l-0.3-71.2c0.6-0.1,1.2-0.2,1.8-0.4c1.1-0.4,2.1-1,3-1.8l80.3,69.7C182.4-18.9,181.8-17.5,181.7-16z M21.4-8.5
					c1.3-0.4,2.4-1.2,3.3-2.1L90.3,40L7.2-5.1l6.1-5.3C15.4-8.3,18.5-7.5,21.4-8.5z M90.6,41.8c-0.7,1.6-0.8,3.3-0.4,5.1L-147,130.6
					l-0.5-0.2c-0.2-0.4-0.4-0.8-0.7-1.1L6-4L90.6,41.8z M-148.9,139.5l93.5,73.4c-1.3,2-1.7,4.5-0.9,6.9c1.3,3.7,5,5.9,8.7,5.3
					l-28.5,26.2l-73.6-111.1C-149.4,139.9-149.2,139.7-148.9,139.5z M-46.5,226.1L1.4,367.2c-0.2,0.1-0.3,0.2-0.5,0.3l-76.2-114.9
					L-46.5,226.1z M7.3,382.1c1.4-0.5,2.6-1.3,3.5-2.4L82,430.1l-61.2,72c-1.3-0.9-2.9-1.4-4.5-1.5L6.1,382.4
					C6.5,382.3,6.9,382.2,7.3,382.1z M125.5,638.2c-2.1,2.1-3,5.3-2,8.3c0.3,1,0.9,1.9,1.5,2.7l-59,61.4L19.5,515.9
					c0.5-0.2,0.9-0.5,1.3-0.8L125.5,638.2z M126.1,650.2c0.7,0.5,1.4,0.9,2.2,1.2L87.8,791.1c-0.9-0.2-1.7-0.2-2.6-0.1l-18.8-78.7
					L126.1,650.2z M93.7,802L222,842.4l-30.1,126.9c-1.2-0.2-2.5-0.1-3.7,0.3c-0.3,0.1-0.6,0.2-0.8,0.3L91,805.4
					C92.2,804.5,93.1,803.3,93.7,802z M193.3,984.7c1.5-0.5,2.8-1.4,3.7-2.6l39.9,26.2l-60.4,81.5c-0.7-0.4-1.4-0.7-2.2-0.9
					l16-103.9C191.2,985.2,192.2,985.1,193.3,984.7z M164.6,1099.3c0.7,2.1,2.3,3.8,4.2,4.7l-8.5,23.3l-21.7-28.8
					c1.3-1.2,2.1-2.7,2.5-4.3l23.2,2.5C164.2,1097.5,164.3,1098.4,164.6,1099.3z M135.8,1100.2c0.6-0.2,1.1-0.5,1.6-0.8l22.3,29.5
					l-27.2,74.7c-0.4-0.1-0.7-0.2-1.1-0.2l2.4-102.9C134.4,1100.5,135.1,1100.4,135.8,1100.2z M273.7,1285.8
					c-0.7,1.7-0.8,3.7-0.2,5.6c0.7,1.9,2,3.5,3.7,4.4l-9.3,21l-130.7-101L273.7,1285.8z M278.6,1296.4c1.6,0.5,3.4,0.6,5.1,0
					c0.7-0.2,1.3-0.5,1.8-0.9l71.9,89.8c-0.1,0.1-0.3,0.2-0.4,0.3l-87.9-68L278.6,1296.4z M359.8,1384.1c-0.4,0.1-0.7,0.3-1,0.5
					l-72-90c1-0.9,1.7-2.1,2.1-3.3l106,23l-29.4,70C363.7,1383.5,361.7,1383.4,359.8,1384.1z M289.1,1289.8c0.1-1.2,0-2.4-0.4-3.5
					c-0.2-0.5-0.4-0.9-0.6-1.3l162.7-112c0.8,0.7,1.6,1.2,2.6,1.5L395.3,1313L289.1,1289.8z M448.6,1169.4c0.3,0.9,0.7,1.7,1.3,2.4
					l-162.6,111.9c-0.9-1-1.9-1.8-3.2-2.3l43.2-145.2l120.9,30.1C448.1,1167.3,448.2,1168.4,448.6,1169.4z M326.3,1134.4L180.1,1098
					c0.1-0.4,0.1-0.9,0.1-1.3l155.6-17.1c0.1,0.3,0.1,0.7,0.3,1c0.8,2.3,2.6,4.1,4.7,4.9L326.3,1134.4z M341.1,1070.4
					c-1.5,0.5-2.7,1.4-3.6,2.5l-98.6-64.9l92.2-124.3c1.1,0.6,2.3,0.9,3.5,0.9l8.1,185.4C342.2,1070.1,341.6,1070.2,341.1,1070.4z
					 M327.3,874l-103.6-32.6l11.7-49.4c1.2,0.2,2.5,0.1,3.7-0.3c1-0.3,1.9-0.9,2.7-1.6l86.5,81.9C327.9,872.6,327.6,873.3,327.3,874
					z M242.2,778.3c-1.3-1.3-3-2.1-4.9-2.2l-0.5-152.4c0.2,0,0.4-0.1,0.6-0.2c0.9-0.3,1.7-0.8,2.4-1.3l83.5,86.8L242.2,778.3z
					 M240.9,621.2c1.2-1.4,1.9-3.2,1.9-5l199.5-13.4c0.1,0.4,0.2,0.9,0.3,1.3c0.3,0.7,0.6,1.4,1,2L324.4,708L240.9,621.2z
					 M442.3,601.3l-199.5,13.4c-0.1-0.4-0.2-0.9-0.3-1.3c-0.2-0.5-0.4-1-0.6-1.4l78.9-55.5l121.8,43.1
					C442.4,600.2,442.3,600.7,442.3,601.3z M240.9,610.8c-1.8-2.2-4.7-3.2-7.6-2.7l-27.6-86.3h0.1c2.2-0.7,3.8-2.3,4.7-4.2
					L319,555.9L240.9,610.8z M202.4,506.2l-19.8-183.8c0.3-0.1,0.7-0.1,1-0.3c4.2-1.4,6.4-6,5-10.1c0-0.1,0-0.1-0.1-0.2l73.5-34.9
					c0.9,1.8,2.3,3.1,4,3.8l-62,225.4C203.5,506.2,203,506.2,202.4,506.2z M262.1,269.9l-72.7-23.1l3.4-30.6
					c0.6-0.1,1.2-0.2,1.8-0.4c1.2-0.4,2.3-1.1,3.2-2l65.1,54.9C262.6,269,262.4,269.4,262.1,269.9z M198.4,203.2
					c-0.9-1.1-2.1-2-3.4-2.5l28.1-96.1c1.3,0.3,2.7,0.2,4.1-0.3c0.7-0.2,1.4-0.6,2-1l44.1,52.2L198.4,203.2z M230.3,102.4
					c1.7-1.7,2.5-4,2.3-6.5l192.3-38.7c0,0.1,0.1,0.3,0.1,0.4c0.1,0.4,0.3,0.7,0.5,1.1l-150.9,96.1L230.3,102.4z M436.3,48
					c-1.1-0.5-2.2-0.9-3.4-0.9l-24-240.5c0.4-0.1,0.7-0.2,1-0.3c0.2-0.1,0.4-0.1,0.5-0.2l81.2,152.1L436.3,48z M411.7-194.6
					c2.3-1.5,3.7-4.1,3.6-6.9l181.7-21c0.1,0.3,0.1,0.6,0.2,0.9c0.5,1.6,1.5,2.9,2.8,3.8L492.5-43.2L411.7-194.6z M392.2-59
					c0.3,0.8,0.7,1.6,1.2,2.2L353.9-21l-45-42.6c0.9-1.1,1.4-2.4,1.6-3.8l81.3,6C391.8-60.6,392-59.8,392.2-59z M195.9-10.3
					c1.7-2,2.3-4.9,1.5-7.5L281.6-58L195.9-10.3z M11.2-13.5c0.3,0.8,0.6,1.5,1.1,2.1L5.8-5.8l-113.7-61.6l119,49
					C10.7-16.9,10.7-15.2,11.2-13.5z M-121-65.4c1,0.1,2.1-0.1,3.1-0.4c1.7-0.6,3.1-1.7,4.1-3.1L4.6-4.8l-153.8,132.9
					c-1-0.9-2.2-1.6-3.5-2L-121-65.4z M-268.3,91.4c1.1-0.8,2-1.9,2.6-3.1l106.2,39.2c-2.7,2-3.9,5.6-2.7,8.9
					c1.1,3.3,4.1,5.3,7.4,5.4l11.5,168.2L-268.3,91.4z M-141.7,311.7l-11.7-169.9c0.4-0.1,0.9-0.2,1.3-0.3c0.4-0.1,0.8-0.3,1.2-0.5
					l73.8,111.3L-141.7,311.7z M-141,313l64.7-59.5l76,114.7c-0.9,0.7-1.5,1.5-2.1,2.5L-141,313z M18.9,519.4l45.9,192.4l-116,120.8
					c-0.7-0.6-1.6-1-2.5-1.3L18.9,519.4z M-48.9,842.1c0.6-1.4,0.9-3.1,0.6-4.7l127.2-35.7c1.5,4,5.9,6.1,10,4.7
					c0.3-0.1,0.6-0.2,0.8-0.3L186,970.6c-0.8,0.5-1.4,1.2-1.9,2L-48.9,842.1z M187.8,984.6c0.3,0.1,0.6,0.2,0.9,0.3l-16,103.9
					c-1-0.1-2,0.1-3.1,0.4c-2.8,0.9-4.7,3.3-5.3,6l-23.2-2.5c0-0.9-0.1-1.8-0.4-2.7c-0.6-1.8-1.8-3.3-3.4-4.2L187.8,984.6z
					 M135.4,1217.6c0.3-0.2,0.6-0.5,0.9-0.8l131,101.3l-24,53.8c-1.6-0.5-3.4-0.6-5.1,0c-0.4,0.1-0.8,0.3-1.2,0.5L135.4,1217.6z
					 M248.8,1379.6c0-0.9-0.1-1.7-0.4-2.6c-0.7-1.9-2-3.5-3.7-4.4l23.8-53.5l87.5,67.7c-0.7,0.9-1.2,1.9-1.5,3L248.8,1379.6z
					 M369.1,1387.4c-0.6-1-1.5-1.9-2.4-2.5l29.5-70.4l72.9,15.9c-0.1,1,0.1,2.1,0.4,3.1c0.1,0.4,0.3,0.9,0.6,1.3L369.1,1387.4z
					 M449.4,1162.6c-0.4,0.7-0.8,1.4-1,2.2l-120.7-30.1l14.5-48.9c1.3,0.2,2.7,0.2,4-0.3c1.3-0.4,2.4-1.2,3.3-2.2L449.4,1162.6z
					 M337.4,869.1c-1.6-0.6-3.4-0.6-5.2,0c-1.1,0.4-2.1,1-2.9,1.7L242.9,789c1.1-1.4,1.7-3.2,1.7-5L375,771.3
					c0.1,0.4,0.2,0.7,0.3,1.1c0.7,1.9,2,3.5,3.6,4.4L337.4,869.1z M385.1,762.1c-1.5-0.5-3.2-0.5-4.9,0.1c-0.9,0.3-1.7,0.8-2.4,1.3
					l-52.4-54.4l119.2-101.8c0.6,0.6,1.2,1,1.9,1.4L385.1,762.1z M441.5,597.6l-119.3-42.2l11.6-8.1c2.1,2.4,5.5,3.5,8.7,2.4
					c1.7-0.6,3.1-1.7,4.1-3.2L441.5,597.6z M337.1,534.6c-2.5,0.9-4.2,2.9-4.9,5.2l-121-24.7c0.1-1.1,0-2.3-0.4-3.4
					c-0.9-2.5-2.9-4.4-5.3-5.1l62-225.3c1.2,0.3,2.4,0.3,3.6,0L337.1,534.6z M277.3,273.8c0-1-0.1-1.9-0.4-2.9
					c-1.4-4.2-6-6.4-10.1-5c-1.1,0.4-2,0.9-2.8,1.6l-65.1-55c0.1-0.2,0.3-0.4,0.4-0.7l180.3,75c-0.1,0.2-0.1,0.4-0.2,0.6
					L277.3,273.8z M387.9,281.3c-1.1-0.1-2.3,0-3.4,0.4c-0.7,0.2-1.4,0.6-2,1l-107-126.8L426.3,60c1.1,1.4,2.6,2.4,4.3,2.8
					L387.9,281.3z M544,44.6c-1.3-0.2-2.7-0.2-4,0.3c-0.1,0-0.3,0.1-0.4,0.2l-46.3-86.8l108-175.2c0.4,0.2,0.7,0.3,1.1,0.4L544,44.6
					z"/>
			</g>
		</g>
		<g>
			<defs>
				<rect id="SVGID_9_" width="1000" height="1000"/>
			</defs>
			<clipPath id="SVGID_10_">
				<use xlink:href="#SVGID_9_"  style="overflow:visible;"/>
			</clipPath>
			<rect class="st9" width="1000" height="1000"/>
		</g>
		<g>
			<defs>
				<rect id="SVGID_11_" width="1000" height="1000"/>
			</defs>
			<clipPath id="SVGID_12_">
				<use xlink:href="#SVGID_11_"  style="overflow:visible;"/>
			</clipPath>
			<g id="XMLID_373_" class="st10">
				
					<radialGradient id="XMLID_4_" cx="-5145.0728" cy="-4172.0049" r="8.9861" gradientTransform="matrix(-1.4652 -0.7943 -0.7943 1.4652 -10410.9297 2295.9648)" gradientUnits="userSpaceOnUse">
					<stop  offset="0" style="stop-color:#000000"/>
					<stop  offset="1" style="stop-color:#000000"/>
				</radialGradient>
				<circle id="XMLID_374_" class="st11" cx="441.5" cy="269.9" r="15"/>
			</g>
		</g>
		<g>
			<defs>
				<rect id="SVGID_13_" width="1000" height="1000"/>
			</defs>
			<clipPath id="SVGID_14_">
				<use xlink:href="#SVGID_13_"  style="overflow:visible;"/>
			</clipPath>
			<g id="XMLID_371_" class="st12">
				
					<radialGradient id="XMLID_5_" cx="-5156.2222" cy="-4019.5554" r="8.9885" gradientTransform="matrix(-1.4652 -0.7943 -0.7943 1.4652 -10410.9297 2295.9648)" gradientUnits="userSpaceOnUse">
					<stop  offset="0" style="stop-color:#000000"/>
					<stop  offset="1" style="stop-color:#000000"/>
				</radialGradient>
				<circle id="XMLID_372_" class="st13" cx="336.7" cy="502.1" r="15"/>
			</g>
		</g>
		<g>
			<defs>
				<rect id="SVGID_15_" width="1000" height="1000"/>
			</defs>
			<clipPath id="SVGID_16_">
				<use xlink:href="#SVGID_15_"  style="overflow:visible;"/>
			</clipPath>
			<g id="XMLID_369_" class="st14">
				
					<radialGradient id="XMLID_6_" cx="-5308.4639" cy="-3829.5171" r="8.9757" gradientTransform="matrix(-1.4652 -0.7943 -0.7943 1.4652 -10410.9297 2295.9648)" gradientUnits="userSpaceOnUse">
					<stop  offset="0" style="stop-color:#000000"/>
					<stop  offset="1" style="stop-color:#000000"/>
				</radialGradient>
				<circle id="XMLID_370_" class="st15" cx="408.8" cy="901.5" r="15"/>
			</g>
		</g>
		<g>
			<defs>
				<rect id="SVGID_17_" width="1000" height="1000"/>
			</defs>
			<clipPath id="SVGID_18_">
				<use xlink:href="#SVGID_17_"  style="overflow:visible;"/>
			</clipPath>
			<g id="XMLID_367_" class="st16">
				
					<radialGradient id="XMLID_7_" cx="-4888.5127" cy="-4153.5703" r="8.9819" gradientTransform="matrix(-1.4652 -0.7943 -0.7943 1.4652 -10410.9297 2295.9648)" gradientUnits="userSpaceOnUse">
					<stop  offset="0" style="stop-color:#000000"/>
					<stop  offset="1" style="stop-color:#000000"/>
				</radialGradient>
				<circle id="XMLID_368_" class="st17" cx="50.9" cy="93.1" r="15"/>
			</g>
		</g>
		<g>
			<defs>
				<rect id="SVGID_19_" width="1000" height="1000"/>
			</defs>
			<clipPath id="SVGID_20_">
				<use xlink:href="#SVGID_19_"  style="overflow:visible;"/>
			</clipPath>
			<g id="XMLID_365_" class="st18">
				
					<radialGradient id="XMLID_8_" cx="-5040.1113" cy="-3946.4648" r="8.9813" gradientTransform="matrix(-1.4652 -0.7943 -0.7943 1.4652 -10410.9297 2295.9648)" gradientUnits="userSpaceOnUse">
					<stop  offset="0" style="stop-color:#000000"/>
					<stop  offset="1" style="stop-color:#000000"/>
				</radialGradient>
				<circle id="XMLID_366_" class="st19" cx="108.5" cy="517" r="15"/>
			</g>
		</g>
		<g>
			<defs>
				<rect id="SVGID_21_" width="1000" height="1000"/>
			</defs>
			<clipPath id="SVGID_22_">
				<use xlink:href="#SVGID_21_"  style="overflow:visible;"/>
			</clipPath>
			<g id="XMLID_363_" class="st20">
				
					<radialGradient id="XMLID_9_" cx="-5168.9756" cy="-3777.4355" r="8.9755" gradientTransform="matrix(-1.4652 -0.7943 -0.7943 1.4652 -10410.9297 2295.9648)" gradientUnits="userSpaceOnUse">
					<stop  offset="0" style="stop-color:#000000"/>
					<stop  offset="1" style="stop-color:#000000"/>
				</radialGradient>
				<circle id="XMLID_364_" class="st21" cx="163.1" cy="867" r="15"/>
			</g>
		</g>
		<g>
			<defs>
				<rect id="SVGID_23_" width="1000" height="1000"/>
			</defs>
			<clipPath id="SVGID_24_">
				<use xlink:href="#SVGID_23_"  style="overflow:visible;"/>
			</clipPath>
			<g id="XMLID_361_" class="st22">
				
					<radialGradient id="XMLID_10_" cx="-5157.9277" cy="-4322.2363" r="8.9797" gradientTransform="matrix(-1.4652 -0.7943 -0.7943 1.4652 -10410.9297 2295.9648)" gradientUnits="userSpaceOnUse">
					<stop  offset="0" style="stop-color:#000000"/>
					<stop  offset="1" style="stop-color:#000000"/>
				</radialGradient>
				<circle id="XMLID_362_" class="st23" cx="579.6" cy="60" r="15"/>
			</g>
		</g>
		<g>
			<defs>
				<rect id="SVGID_25_" width="1000" height="1000"/>
			</defs>
			<clipPath id="SVGID_26_">
				<use xlink:href="#SVGID_25_"  style="overflow:visible;"/>
			</clipPath>
			<g id="XMLID_359_" class="st24">
				
					<radialGradient id="XMLID_11_" cx="-5026.6709" cy="-4024.7407" r="8.9761" gradientTransform="matrix(-1.4652 -0.7943 -0.7943 1.4652 -10410.9297 2295.9648)" gradientUnits="userSpaceOnUse">
					<stop  offset="0" style="stop-color:#000000"/>
					<stop  offset="1" style="stop-color:#000000"/>
				</radialGradient>
				<circle id="XMLID_360_" class="st25" cx="151" cy="391.6" r="15"/>
			</g>
		</g>
	</g>
</g>
</svg>
